<?xml version="1.0" encoding="UTF-8" standalone="no"?>
<!DOCTYPE svg PUBLIC "-//W3C//DTD SVG 1.1//EN"
 "http://www.w3.org/Graphics/SVG/1.1/DTD/svg11.dtd">
<!-- Generated by graphviz version 11.0.0 (0)
 -->
<!-- Pages: 1 -->
<svg width="347pt" height="500pt"
 viewBox="0.00 0.00 347.00 499.50" xmlns="http://www.w3.org/2000/svg" xmlns:xlink="http://www.w3.org/1999/xlink">
<g id="graph0" class="graph" transform="scale(1 1) rotate(0) translate(4 495.5)">
<polygon fill="white" stroke="none" points="-4,4 -4,-495.5 343,-495.5 343,4 -4,4"/>
<g id="clust1" class="cluster">
<title>cluster_service1</title>
<polygon fill="lightgrey" stroke="lightgrey" points="8,-152 8,-483.5 104,-483.5 104,-152 8,-152"/>
<text text-anchor="middle" x="56" y="-466.2" font-family="Times,serif" font-size="14.00">service1</text>
</g>
<g id="clust2" class="cluster">
<title>cluster_service2</title>
<polygon fill="lightgrey" stroke="lightgrey" points="235,-152 235,-483.5 331,-483.5 331,-152 235,-152"/>
<text text-anchor="middle" x="283" y="-466.2" font-family="Times,serif" font-size="14.00">service2</text>
</g>
<g id="clust3" class="cluster">
<title>cluster_service3</title>
<polygon fill="lightgrey" stroke="lightgrey" points="121,-8 121,-300.5 217,-300.5 217,-8 121,-8"/>
<text text-anchor="middle" x="169" y="-283.2" font-family="Times,serif" font-size="14.00">service3</text>
</g>
<!-- service1_started -->
<g id="node1" class="node">
<title>service1_started</title>
<ellipse fill="lightblue" stroke="lightblue" cx="58" cy="-433" rx="35.49" ry="18"/>
<text text-anchor="middle" x="58" y="-427.95" font-family="Times,serif" font-size="14.00">started</text>
</g>
<!-- service1_ready -->
<g id="node2" class="node">
<title>service1_ready</title>
<ellipse fill="lightblue" stroke="lightblue" cx="58" cy="-361" rx="31.39" ry="18"/>
<text text-anchor="middle" x="58" y="-355.95" font-family="Times,serif" font-size="14.00">ready</text>
</g>
<!-- service1_started&#45;&gt;service1_ready -->
<g id="edge1" class="edge">
<title>service1_started&#45;&gt;service1_ready</title>
<path fill="none" stroke="black" d="M58,-414.7C58,-407.41 58,-398.73 58,-390.54"/>
<polygon fill="black" stroke="black" points="61.5,-390.62 58,-380.62 54.5,-390.62 61.5,-390.62"/>
</g>
<!-- service1_custom_state -->
<g id="node3" class="node">
<title>service1_custom_state</title>
<ellipse fill="lightblue" stroke="lightblue" cx="56" cy="-250" rx="39.58" ry="18"/>
<text text-anchor="middle" x="56" y="-244.95" font-family="Times,serif" font-size="14.00">running</text>
</g>
<!-- service1_ready&#45;&gt;service1_custom_state -->
<g id="edge2" class="edge">
<title>service1_ready&#45;&gt;service1_custom_state</title>
<path fill="none" stroke="black" d="M57.69,-342.97C57.38,-326.03 56.89,-299.73 56.52,-279.59"/>
<polygon fill="black" stroke="black" points="60.03,-279.72 56.34,-269.78 53.03,-279.85 60.03,-279.72"/>
</g>
<!-- service3_started -->
<g id="node9" class="node">
<title>service3_started</title>
<ellipse fill="lightblue" stroke="lightblue" cx="169" cy="-250" rx="35.49" ry="18"/>
<text text-anchor="middle" x="169" y="-244.95" font-family="Times,serif" font-size="14.00">started</text>
</g>
<!-- service1_ready&#45;&gt;service3_started -->
<g id="edge10" class="edge">
<title>service1_ready&#45;&gt;service3_started</title>
<path fill="none" stroke="black" d="M61.39,-342.92C64.48,-331.65 70.16,-317.38 80.25,-308.5 89.88,-300.02 96.62,-306.44 108,-300.5 121.41,-293.5 134.66,-283.27 145.36,-273.92"/>
<polygon fill="black" stroke="black" points="147.51,-276.7 152.57,-267.39 142.81,-271.51 147.51,-276.7"/>
<text text-anchor="middle" x="119.38" y="-311.7" font-family="Times,serif" font-size="14.00">service1 ready</text>
</g>
<!-- service1_stopped -->
<g id="node4" class="node">
<title>service1_stopped</title>
<ellipse fill="lightblue" stroke="lightblue" cx="56" cy="-178" rx="39.58" ry="18"/>
<text text-anchor="middle" x="56" y="-172.95" font-family="Times,serif" font-size="14.00">stopped</text>
</g>
<!-- service1_custom_state&#45;&gt;service1_stopped -->
<g id="edge3" class="edge">
<title>service1_custom_state&#45;&gt;service1_stopped</title>
<path fill="none" stroke="black" d="M56,-231.7C56,-224.41 56,-215.73 56,-207.54"/>
<polygon fill="black" stroke="black" points="59.5,-207.62 56,-197.62 52.5,-207.62 59.5,-207.62"/>
</g>
<!-- service2_started -->
<g id="node5" class="node">
<title>service2_started</title>
<ellipse fill="lightblue" stroke="lightblue" cx="280" cy="-433" rx="35.49" ry="18"/>
<text text-anchor="middle" x="280" y="-427.95" font-family="Times,serif" font-size="14.00">started</text>
</g>
<!-- service2_ready -->
<g id="node6" class="node">
<title>service2_ready</title>
<ellipse fill="lightblue" stroke="lightblue" cx="280" cy="-361" rx="31.39" ry="18"/>
<text text-anchor="middle" x="280" y="-355.95" font-family="Times,serif" font-size="14.00">ready</text>
</g>
<!-- service2_started&#45;&gt;service2_ready -->
<g id="edge4" class="edge">
<title>service2_started&#45;&gt;service2_ready</title>
<path fill="none" stroke="black" d="M280,-414.7C280,-407.41 280,-398.73 280,-390.54"/>
<polygon fill="black" stroke="black" points="283.5,-390.62 280,-380.62 276.5,-390.62 283.5,-390.62"/>
</g>
<!-- service2_custom_state -->
<g id="node7" class="node">
<title>service2_custom_state</title>
<ellipse fill="lightblue" stroke="lightblue" cx="283" cy="-250" rx="39.58" ry="18"/>
<text text-anchor="middle" x="283" y="-244.95" font-family="Times,serif" font-size="14.00">running</text>
</g>
<!-- service2_ready&#45;&gt;service2_custom_state -->
<g id="edge5" class="edge">
<title>service2_ready&#45;&gt;service2_custom_state</title>
<path fill="none" stroke="black" d="M280.47,-342.97C280.93,-326.03 281.66,-299.73 282.21,-279.59"/>
<polygon fill="black" stroke="black" points="285.71,-279.88 282.48,-269.78 278.71,-279.68 285.71,-279.88"/>
</g>
<!-- service2_ready&#45;&gt;service3_started -->
<g id="edge11" class="edge">
<title>service2_ready&#45;&gt;service3_started</title>
<path fill="none" stroke="black" d="M251.03,-353.86C233.43,-348.79 211.66,-339.93 197.25,-325 185.23,-312.54 178.2,-294.44 174.16,-279.26"/>
<polygon fill="black" stroke="black" points="177.64,-278.78 171.96,-269.83 170.82,-280.36 177.64,-278.78"/>
<text text-anchor="middle" x="236.38" y="-311.7" font-family="Times,serif" font-size="14.00">service2 ready</text>
</g>
<!-- service2_stopped -->
<g id="node8" class="node">
<title>service2_stopped</title>
<ellipse fill="lightblue" stroke="lightblue" cx="283" cy="-178" rx="39.58" ry="18"/>
<text text-anchor="middle" x="283" y="-172.95" font-family="Times,serif" font-size="14.00">stopped</text>
</g>
<!-- service2_custom_state&#45;&gt;service2_stopped -->
<g id="edge6" class="edge">
<title>service2_custom_state&#45;&gt;service2_stopped</title>
<path fill="none" stroke="black" d="M283,-231.7C283,-224.41 283,-215.73 283,-207.54"/>
<polygon fill="black" stroke="black" points="286.5,-207.62 283,-197.62 279.5,-207.62 286.5,-207.62"/>
</g>
<!-- service3_ready -->
<g id="node10" class="node">
<title>service3_ready</title>
<ellipse fill="lightblue" stroke="lightblue" cx="169" cy="-178" rx="31.39" ry="18"/>
<text text-anchor="middle" x="169" y="-172.95" font-family="Times,serif" font-size="14.00">ready</text>
</g>
<!-- service3_started&#45;&gt;service3_ready -->
<g id="edge7" class="edge">
<title>service3_started&#45;&gt;service3_ready</title>
<path fill="none" stroke="black" d="M169,-231.7C169,-224.41 169,-215.73 169,-207.54"/>
<polygon fill="black" stroke="black" points="172.5,-207.62 169,-197.62 165.5,-207.62 172.5,-207.62"/>
</g>
<!-- service3_custom_state -->
<g id="node11" class="node">
<title>service3_custom_state</title>
<ellipse fill="lightblue" stroke="lightblue" cx="169" cy="-106" rx="39.58" ry="18"/>
<text text-anchor="middle" x="169" y="-100.95" font-family="Times,serif" font-size="14.00">running</text>
</g>
<!-- service3_ready&#45;&gt;service3_custom_state -->
<g id="edge8" class="edge">
<title>service3_ready&#45;&gt;service3_custom_state</title>
<path fill="none" stroke="black" d="M169,-159.7C169,-152.41 169,-143.73 169,-135.54"/>
<polygon fill="black" stroke="black" points="172.5,-135.62 169,-125.62 165.5,-135.62 172.5,-135.62"/>
</g>
<!-- service3_stopped -->
<g id="node12" class="node">
<title>service3_stopped</title>
<ellipse fill="lightblue" stroke="lightblue" cx="169" cy="-34" rx="39.58" ry="18"/>
<text text-anchor="middle" x="169" y="-28.95" font-family="Times,serif" font-size="14.00">stopped</text>
</g>
<!-- service3_custom_state&#45;&gt;service3_stopped -->
<g id="edge9" class="edge">
<title>service3_custom_state&#45;&gt;service3_stopped</title>
<path fill="none" stroke="black" d="M169,-87.7C169,-80.41 169,-71.73 169,-63.54"/>
<polygon fill="black" stroke="black" points="172.5,-63.62 169,-53.62 165.5,-63.62 172.5,-63.62"/>
</g>
</g>
</svg>
