<?xml version="1.0" encoding="UTF-8" standalone="no"?>
<!DOCTYPE svg PUBLIC "-//W3C//DTD SVG 1.1//EN"
 "http://www.w3.org/Graphics/SVG/1.1/DTD/svg11.dtd">
<!-- Generated by graphviz version 11.0.0 (0)
 -->
<!-- Pages: 1 -->
<svg width="641pt" height="398pt"
 viewBox="0.00 0.00 641.25 398.00" xmlns="http://www.w3.org/2000/svg" xmlns:xlink="http://www.w3.org/1999/xlink">
<g id="graph0" class="graph" transform="scale(1 1) rotate(0) translate(4 394)">
<polygon fill="white" stroke="none" points="-4,4 -4,-394 637.25,-394 637.25,4 -4,4"/>
<!-- reserve_port -->
<g id="node1" class="node">
<title>reserve_port</title>
<polygon fill="lightgrey" stroke="black" points="291.38,-390 205.62,-390 205.62,-354 291.38,-354 291.38,-390"/>
<text text-anchor="middle" x="248.5" y="-366.95" font-family="Times,serif" font-size="14.00">Reserve Port</text>
</g>
<!-- chmod_port_config -->
<g id="node2" class="node">
<title>chmod_port_config</title>
<polygon fill="lightgrey" stroke="black" points="350.62,-301.5 146.38,-301.5 146.38,-265.5 350.62,-265.5 350.62,-301.5"/>
<text text-anchor="middle" x="248.5" y="-278.45" font-family="Times,serif" font-size="14.00">Change Permission of Port Config</text>
</g>
<!-- reserve_port&#45;&gt;chmod_port_config -->
<g id="edge1" class="edge">
<title>reserve_port&#45;&gt;chmod_port_config</title>
<path fill="none" stroke="black" d="M248.5,-353.91C248.5,-342.26 248.5,-326.55 248.5,-313.02"/>
<polygon fill="black" stroke="black" points="252,-313.36 248.5,-303.36 245,-313.36 252,-313.36"/>
<text text-anchor="middle" x="289.38" y="-322.7" font-family="Times,serif" font-size="14.00">Ports Reserved</text>
</g>
<!-- copy_ports_config -->
<g id="node3" class="node">
<title>copy_ports_config</title>
<polygon fill="lightgrey" stroke="black" points="252.5,-213 134.5,-213 134.5,-177 252.5,-177 252.5,-213"/>
<text text-anchor="middle" x="193.5" y="-189.95" font-family="Times,serif" font-size="14.00">Copy Ports Config</text>
</g>
<!-- chmod_port_config&#45;&gt;copy_ports_config -->
<g id="edge2" class="edge">
<title>chmod_port_config&#45;&gt;copy_ports_config</title>
<path fill="none" stroke="black" d="M224.93,-265.04C219.24,-259.91 213.63,-253.93 209.5,-247.5 205.02,-240.51 201.72,-232.18 199.33,-224.28"/>
<polygon fill="black" stroke="black" points="202.73,-223.47 196.81,-214.69 195.96,-225.25 202.73,-223.47"/>
<text text-anchor="middle" x="253" y="-234.2" font-family="Times,serif" font-size="14.00">Permissions Set</text>
</g>
<!-- gazebo_server -->
<g id="node4" class="node">
<title>gazebo_server</title>
<polygon fill="lightgrey" stroke="black" points="396.25,-213 270.75,-213 270.75,-177 396.25,-177 396.25,-213"/>
<text text-anchor="middle" x="333.5" y="-189.95" font-family="Times,serif" font-size="14.00">Start Gazebo Server</text>
</g>
<!-- chmod_port_config&#45;&gt;gazebo_server -->
<g id="edge3" class="edge">
<title>chmod_port_config&#45;&gt;gazebo_server</title>
<path fill="none" stroke="black" d="M275.62,-265.02C282.78,-259.81 290.25,-253.79 296.5,-247.5 303.86,-240.09 310.85,-231.1 316.73,-222.71"/>
<polygon fill="black" stroke="black" points="319.55,-224.79 322.23,-214.54 313.74,-220.88 319.55,-224.79"/>
<text text-anchor="middle" x="349.62" y="-234.2" font-family="Times,serif" font-size="14.00">Config Copied</text>
</g>
<!-- px4_instance_0 -->
<g id="node5" class="node">
<title>px4_instance_0</title>
<polygon fill="lightgrey" stroke="black" points="248.12,-124.5 148.88,-124.5 148.88,-88.5 248.12,-88.5 248.12,-124.5"/>
<text text-anchor="middle" x="198.5" y="-101.45" font-family="Times,serif" font-size="14.00">PX4 Instance 0</text>
</g>
<!-- gazebo_server&#45;&gt;px4_instance_0 -->
<g id="edge4" class="edge">
<title>gazebo_server&#45;&gt;px4_instance_0</title>
<path fill="none" stroke="black" d="M283.3,-176.68C271.91,-171.75 260.18,-165.83 250,-159 239.18,-151.74 228.72,-141.98 220.09,-132.9"/>
<polygon fill="black" stroke="black" points="222.78,-130.65 213.45,-125.64 217.62,-135.38 222.78,-130.65"/>
<text text-anchor="middle" x="289.25" y="-145.7" font-family="Times,serif" font-size="14.00">Gazebo Ready</text>
</g>
<!-- px4_instance_1 -->
<g id="node7" class="node">
<title>px4_instance_1</title>
<polygon fill="lightgrey" stroke="black" points="383.12,-124.5 283.88,-124.5 283.88,-88.5 383.12,-88.5 383.12,-124.5"/>
<text text-anchor="middle" x="333.5" y="-101.45" font-family="Times,serif" font-size="14.00">PX4 Instance 1</text>
</g>
<!-- gazebo_server&#45;&gt;px4_instance_1 -->
<g id="edge6" class="edge">
<title>gazebo_server&#45;&gt;px4_instance_1</title>
<path fill="none" stroke="black" d="M333.5,-176.91C333.5,-165.26 333.5,-149.55 333.5,-136.02"/>
<polygon fill="black" stroke="black" points="337,-136.36 333.5,-126.36 330,-136.36 337,-136.36"/>
<text text-anchor="middle" x="373.25" y="-145.7" font-family="Times,serif" font-size="14.00">Gazebo Ready</text>
</g>
<!-- px4_instance_2 -->
<g id="node9" class="node">
<title>px4_instance_2</title>
<polygon fill="lightgrey" stroke="black" points="511.12,-124.5 411.88,-124.5 411.88,-88.5 511.12,-88.5 511.12,-124.5"/>
<text text-anchor="middle" x="461.5" y="-101.45" font-family="Times,serif" font-size="14.00">PX4 Instance 2</text>
</g>
<!-- gazebo_server&#45;&gt;px4_instance_2 -->
<g id="edge8" class="edge">
<title>gazebo_server&#45;&gt;px4_instance_2</title>
<path fill="none" stroke="black" d="M386.17,-176.52C397.04,-171.71 408.05,-165.88 417.5,-159 427.1,-152.01 435.97,-142.53 443.19,-133.61"/>
<polygon fill="black" stroke="black" points="445.84,-135.9 449.16,-125.83 440.29,-131.63 445.84,-135.9"/>
<text text-anchor="middle" x="474.25" y="-145.7" font-family="Times,serif" font-size="14.00">Gazebo Ready</text>
</g>
<!-- spawn_model_0 -->
<g id="node6" class="node">
<title>spawn_model_0</title>
<polygon fill="lightgrey" stroke="black" points="103,-36 0,-36 0,0 103,0 103,-36"/>
<text text-anchor="middle" x="51.5" y="-12.95" font-family="Times,serif" font-size="14.00">Spawn Model 0</text>
</g>
<!-- px4_instance_0&#45;&gt;spawn_model_0 -->
<g id="edge5" class="edge">
<title>px4_instance_0&#45;&gt;spawn_model_0</title>
<path fill="none" stroke="black" d="M148.65,-100.01C111.36,-94.77 64.81,-85.43 52.75,-70.5 47.55,-64.07 45.95,-55.57 46.02,-47.33"/>
<polygon fill="black" stroke="black" points="49.48,-47.88 46.89,-37.61 42.51,-47.26 49.48,-47.88"/>
<text text-anchor="middle" x="115.38" y="-57.2" font-family="Times,serif" font-size="14.00">Waiting For Simulator</text>
</g>
<!-- pose_sender -->
<g id="node11" class="node">
<title>pose_sender</title>
<polygon fill="lightgrey" stroke="black" points="454.5,-36 342.5,-36 342.5,0 454.5,0 454.5,-36"/>
<text text-anchor="middle" x="398.5" y="-12.95" font-family="Times,serif" font-size="14.00">Start Pose Sender</text>
</g>
<!-- px4_instance_0&#45;&gt;pose_sender -->
<g id="edge10" class="edge">
<title>px4_instance_0&#45;&gt;pose_sender</title>
<path fill="none" stroke="black" d="M197.73,-88.3C198.2,-76.98 200.82,-62.7 210,-54 227.58,-37.34 293.7,-40.49 317.5,-36 322.03,-35.15 326.69,-34.24 331.39,-33.31"/>
<polygon fill="black" stroke="black" points="331.75,-36.8 340.87,-31.39 330.37,-29.94 331.75,-36.8"/>
<text text-anchor="middle" x="227.75" y="-57.2" font-family="Times,serif" font-size="14.00">Ready</text>
</g>
<!-- spawn_model_1 -->
<g id="node8" class="node">
<title>spawn_model_1</title>
<polygon fill="lightgrey" stroke="black" points="308,-36 205,-36 205,0 308,0 308,-36"/>
<text text-anchor="middle" x="256.5" y="-12.95" font-family="Times,serif" font-size="14.00">Spawn Model 1</text>
</g>
<!-- px4_instance_1&#45;&gt;spawn_model_1 -->
<g id="edge7" class="edge">
<title>px4_instance_1&#45;&gt;spawn_model_1</title>
<path fill="none" stroke="black" d="M283.7,-93.92C271.93,-88.73 260.78,-81.26 253.75,-70.5 249.34,-63.75 248.37,-55.38 248.97,-47.36"/>
<polygon fill="black" stroke="black" points="252.41,-48.02 250.52,-37.59 245.5,-46.92 252.41,-48.02"/>
<text text-anchor="middle" x="315.38" y="-57.2" font-family="Times,serif" font-size="14.00">Waiting For Simulator</text>
</g>
<!-- px4_instance_1&#45;&gt;pose_sender -->
<g id="edge11" class="edge">
<title>px4_instance_1&#45;&gt;pose_sender</title>
<path fill="none" stroke="black" d="M363.48,-88.07C370.13,-83.09 376.64,-77.17 381.5,-70.5 386.48,-63.67 390.05,-55.31 392.6,-47.32"/>
<polygon fill="black" stroke="black" points="395.9,-48.5 395.15,-37.93 389.15,-46.66 395.9,-48.5"/>
<text text-anchor="middle" x="406.75" y="-57.2" font-family="Times,serif" font-size="14.00">Ready</text>
</g>
<!-- spawn_model_2 -->
<g id="node10" class="node">
<title>spawn_model_2</title>
<polygon fill="lightgrey" stroke="black" points="576,-36 473,-36 473,0 576,0 576,-36"/>
<text text-anchor="middle" x="524.5" y="-12.95" font-family="Times,serif" font-size="14.00">Spawn Model 2</text>
</g>
<!-- px4_instance_2&#45;&gt;spawn_model_2 -->
<g id="edge9" class="edge">
<title>px4_instance_2&#45;&gt;spawn_model_2</title>
<path fill="none" stroke="black" d="M484.09,-88.01C489.91,-82.8 495.84,-76.79 500.5,-70.5 505.83,-63.31 510.4,-54.74 514.07,-46.68"/>
<polygon fill="black" stroke="black" points="517.25,-48.15 517.93,-37.57 510.81,-45.42 517.25,-48.15"/>
<text text-anchor="middle" x="571.38" y="-57.2" font-family="Times,serif" font-size="14.00">Waiting For Simulator</text>
</g>
<!-- px4_instance_2&#45;&gt;pose_sender -->
<g id="edge12" class="edge">
<title>px4_instance_2&#45;&gt;pose_sender</title>
<path fill="none" stroke="black" d="M456.37,-88.23C452.71,-77.71 447.1,-64.34 439.5,-54 436.89,-50.45 433.86,-47.03 430.65,-43.8"/>
<polygon fill="black" stroke="black" points="433.26,-41.45 423.53,-37.25 428.52,-46.6 433.26,-41.45"/>
<text text-anchor="middle" x="465.75" y="-57.2" font-family="Times,serif" font-size="14.00">Ready</text>
</g>
</g>
</svg>
