<?xml version="1.0" encoding="UTF-8" standalone="no"?>
<!DOCTYPE svg PUBLIC "-//W3C//DTD SVG 1.1//EN"
 "http://www.w3.org/Graphics/SVG/1.1/DTD/svg11.dtd">
<!-- Generated by graphviz version 11.0.0 (0)
 -->
<!-- Title: StateFlowchart Pages: 1 -->
<svg width="623pt" height="503pt"
 viewBox="0.00 0.00 622.62 503.00" xmlns="http://www.w3.org/2000/svg" xmlns:xlink="http://www.w3.org/1999/xlink">
<g id="graph0" class="graph" transform="scale(1 1) rotate(0) translate(4 499)">
<title>StateFlowchart</title>
<polygon fill="white" stroke="none" points="-4,4 -4,-499 618.62,-499 618.62,4 -4,4"/>
<!-- Start -->
<g id="node1" class="node">
<title>Start</title>
<ellipse fill="white" stroke="black" cx="243.62" cy="-477" rx="28.32" ry="18"/>
<text text-anchor="middle" x="243.62" y="-471.95" font-family="Times,serif" font-size="14.00">Start</text>
</g>
<!-- Initialized -->
<g id="node2" class="node">
<title>Initialized</title>
<polygon fill="lightgrey" stroke="black" points="279,-406.5 208.25,-406.5 208.25,-370.5 279,-370.5 279,-406.5"/>
<text text-anchor="middle" x="243.62" y="-383.45" font-family="Times,serif" font-size="14.00">Initialized</text>
</g>
<!-- Start&#45;&gt;Initialized -->
<g id="edge1" class="edge">
<title>Start&#45;&gt;Initialized</title>
<path fill="none" stroke="black" d="M243.62,-458.91C243.62,-447.26 243.62,-431.55 243.62,-418.02"/>
<polygon fill="black" stroke="black" points="247.13,-418.36 243.63,-408.36 240.13,-418.36 247.13,-418.36"/>
<text text-anchor="middle" x="278.12" y="-427.7" font-family="Times,serif" font-size="14.00">Initialization</text>
</g>
<!-- Started -->
<g id="node3" class="node">
<title>Started</title>
<polygon fill="lightgrey" stroke="black" points="270.75,-318 216.5,-318 216.5,-282 270.75,-282 270.75,-318"/>
<text text-anchor="middle" x="243.62" y="-294.95" font-family="Times,serif" font-size="14.00">Started</text>
</g>
<!-- Initialized&#45;&gt;Started -->
<g id="edge2" class="edge">
<title>Initialized&#45;&gt;Started</title>
<path fill="none" stroke="black" d="M243.62,-370.41C243.62,-358.76 243.62,-343.05 243.62,-329.52"/>
<polygon fill="black" stroke="black" points="247.13,-329.86 243.63,-319.86 240.13,-329.86 247.13,-329.86"/>
<text text-anchor="middle" x="307" y="-339.2" font-family="Times,serif" font-size="14.00">Dependencies Satisfied</text>
</g>
<!-- UserDefinedState -->
<g id="node4" class="node">
<title>UserDefinedState</title>
<polygon fill="none" stroke="black" stroke-dasharray="5,2" points="303.38,-229.5 183.88,-229.5 183.88,-193.5 303.38,-193.5 303.38,-229.5"/>
<text text-anchor="middle" x="243.62" y="-206.45" font-family="Times,serif" font-size="14.00">User Defined State</text>
</g>
<!-- Started&#45;&gt;UserDefinedState -->
<g id="edge3" class="edge">
<title>Started&#45;&gt;UserDefinedState</title>
<path fill="none" stroke="black" d="M243.62,-281.91C243.62,-270.26 243.62,-254.55 243.62,-241.02"/>
<polygon fill="black" stroke="black" points="247.13,-241.36 243.63,-231.36 240.13,-241.36 247.13,-241.36"/>
<text text-anchor="middle" x="332.12" y="-250.7" font-family="Times,serif" font-size="14.00">Transition to User Defined State</text>
</g>
<!-- ActionSuccess -->
<g id="node5" class="node">
<title>ActionSuccess</title>
<polygon fill="lightgrey" stroke="black" points="99.25,-124.5 0,-124.5 0,-88.5 99.25,-88.5 99.25,-124.5"/>
<text text-anchor="middle" x="49.62" y="-101.45" font-family="Times,serif" font-size="14.00">Action Success</text>
</g>
<!-- UserDefinedState&#45;&gt;ActionSuccess -->
<g id="edge4" class="edge">
<title>UserDefinedState&#45;&gt;ActionSuccess</title>
<path fill="none" stroke="black" d="M183.59,-205.89C138.09,-201.13 80.63,-192.02 63.88,-175.5 53.58,-165.35 49.8,-149.79 48.69,-136.12"/>
<polygon fill="black" stroke="black" points="52.2,-136.16 48.36,-126.29 45.2,-136.4 52.2,-136.16"/>
<text text-anchor="middle" x="111.5" y="-162.2" font-family="Times,serif" font-size="14.00">Action Complete</text>
<text text-anchor="middle" x="111.5" y="-145.7" font-family="Times,serif" font-size="14.00">(Return Code 0)</text>
</g>
<!-- ActionFailure -->
<g id="node6" class="node">
<title>ActionFailure</title>
<polygon fill="lightgrey" stroke="black" points="224,-124.5 129.25,-124.5 129.25,-88.5 224,-88.5 224,-124.5"/>
<text text-anchor="middle" x="176.62" y="-101.45" font-family="Times,serif" font-size="14.00">Action Failure</text>
</g>
<!-- UserDefinedState&#45;&gt;ActionFailure -->
<g id="edge5" class="edge">
<title>UserDefinedState&#45;&gt;ActionFailure</title>
<path fill="none" stroke="black" d="M185.53,-193.13C178.14,-188.54 171.55,-182.77 166.88,-175.5 159.34,-163.78 160.71,-148.61 164.43,-135.56"/>
<polygon fill="black" stroke="black" points="167.7,-136.82 167.64,-126.22 161.08,-134.54 167.7,-136.82"/>
<text text-anchor="middle" x="234" y="-162.2" font-family="Times,serif" font-size="14.00">Action Failed</text>
<text text-anchor="middle" x="234" y="-145.7" font-family="Times,serif" font-size="14.00">(Non&#45;zero Return Code)</text>
</g>
<!-- ServiceFailure -->
<g id="node7" class="node">
<title>ServiceFailure</title>
<polygon fill="lightgrey" stroke="black" points="369.88,-124.5 271.38,-124.5 271.38,-88.5 369.88,-88.5 369.88,-124.5"/>
<text text-anchor="middle" x="320.62" y="-101.45" font-family="Times,serif" font-size="14.00">Service Failure</text>
</g>
<!-- UserDefinedState&#45;&gt;ServiceFailure -->
<g id="edge6" class="edge">
<title>UserDefinedState&#45;&gt;ServiceFailure</title>
<path fill="none" stroke="black" d="M279.87,-193.16C287.22,-188.3 294.31,-182.41 299.62,-175.5 308.34,-164.18 313.46,-149.22 316.46,-136.21"/>
<polygon fill="black" stroke="black" points="319.89,-136.94 318.38,-126.46 313.02,-135.6 319.89,-136.94"/>
<text text-anchor="middle" x="398.25" y="-153.95" font-family="Times,serif" font-size="14.00">Service Unexpectedly Stopped</text>
</g>
<!-- Stopped -->
<g id="node8" class="node">
<title>Stopped</title>
<polygon fill="lightgrey" stroke="black" points="525.75,-124.5 465.5,-124.5 465.5,-88.5 525.75,-88.5 525.75,-124.5"/>
<text text-anchor="middle" x="495.62" y="-101.45" font-family="Times,serif" font-size="14.00">Stopped</text>
</g>
<!-- UserDefinedState&#45;&gt;Stopped -->
<g id="edge7" class="edge">
<title>UserDefinedState&#45;&gt;Stopped</title>
<path fill="none" stroke="black" d="M303.65,-209.77C366.9,-207.67 460.76,-200.31 485.62,-175.5 495.75,-165.4 498.59,-149.84 498.74,-136.16"/>
<polygon fill="black" stroke="black" points="502.24,-136.17 498.36,-126.31 495.25,-136.44 502.24,-136.17"/>
<text text-anchor="middle" x="556.12" y="-153.95" font-family="Times,serif" font-size="14.00">Stop Signal Received</text>
</g>
<!-- Final -->
<g id="node9" class="node">
<title>Final</title>
<polygon fill="lightgrey" stroke="black" points="280.62,-36 226.62,-36 226.62,0 280.62,0 280.62,-36"/>
<text text-anchor="middle" x="253.62" y="-12.95" font-family="Times,serif" font-size="14.00">Final</text>
</g>
<!-- ActionSuccess&#45;&gt;Final -->
<g id="edge8" class="edge">
<title>ActionSuccess&#45;&gt;Final</title>
<path fill="none" stroke="black" d="M51.17,-88.2C53.11,-76.83 57.5,-62.53 67.38,-54 89,-35.33 167.01,-25.88 214.94,-21.74"/>
<polygon fill="black" stroke="black" points="214.95,-25.25 224.63,-20.94 214.38,-18.27 214.95,-25.25"/>
<text text-anchor="middle" x="121.25" y="-57.2" font-family="Times,serif" font-size="14.00">Mark as Final State</text>
</g>
<!-- ActionFailure&#45;&gt;Final -->
<g id="edge9" class="edge">
<title>ActionFailure&#45;&gt;Final</title>
<path fill="none" stroke="black" d="M176.2,-88.23C176.77,-77.44 179.1,-63.79 186.38,-54 193.75,-44.07 204.77,-36.72 215.77,-31.38"/>
<polygon fill="black" stroke="black" points="217.01,-34.66 224.8,-27.47 214.23,-28.24 217.01,-34.66"/>
<text text-anchor="middle" x="239.25" y="-57.2" font-family="Times,serif" font-size="14.00">Mark as Final State</text>
</g>
<!-- ServiceFailure&#45;&gt;Final -->
<g id="edge10" class="edge">
<title>ServiceFailure&#45;&gt;Final</title>
<path fill="none" stroke="black" d="M315.24,-88.15C311.41,-77.59 305.54,-64.22 297.62,-54 294.88,-50.46 291.7,-47.06 288.33,-43.87"/>
<polygon fill="black" stroke="black" points="290.71,-41.29 280.86,-37.38 286.12,-46.58 290.71,-41.29"/>
<text text-anchor="middle" x="360.25" y="-57.2" font-family="Times,serif" font-size="14.00">Mark as Final State</text>
</g>
<!-- Stopped&#45;&gt;Final -->
<g id="edge11" class="edge">
<title>Stopped&#45;&gt;Final</title>
<path fill="none" stroke="black" d="M474.02,-88.03C459.02,-76.74 438.13,-62.59 417.62,-54 376.67,-36.84 326.31,-27.7 292.28,-23.12"/>
<polygon fill="black" stroke="black" points="292.83,-19.66 282.47,-21.87 291.95,-26.61 292.83,-19.66"/>
<text text-anchor="middle" x="500.25" y="-57.2" font-family="Times,serif" font-size="14.00">Mark as Final State</text>
</g>
</g>
</svg>
