<svg version="1.1" viewBox="0.0 0.0 960.0 540.0" fill="none" stroke="none" stroke-linecap="square" stroke-miterlimit="10" xmlns:xlink="http://www.w3.org/1999/xlink" xmlns="http://www.w3.org/2000/svg"><clipPath id="g1f5f036ee32_6_318.0"><path d="m0 0l960.0 0l0 540.0l-960.0 0l0 -540.0z" clip-rule="nonzero"/></clipPath><g clip-path="url(#g1f5f036ee32_6_318.0)"><path fill="#ffffff" d="m0 0l960.0 0l0 540.0l-960.0 0z" fill-rule="evenodd"/><path fill="#eeeeee" d="m2.7480912 107.00324l140.94489 0l0 107.77953l-140.94489 0z" fill-rule="evenodd"/><path stroke="#595959" stroke-width="1.0" stroke-linejoin="round" stroke-linecap="butt" d="m2.7480912 107.00324l140.94489 0l0 107.77953l-140.94489 0z" fill-rule="evenodd"/><path fill="#a4c2f4" d="m9.801897 169.7434l37.795273 0l0 36.881897l-37.795273 0z" fill-rule="evenodd"/><path stroke="#595959" stroke-width="1.0" stroke-linejoin="round" stroke-linecap="butt" d="m9.801897 169.7434l37.795273 0l0 36.881897l-37.795273 0z" fill-rule="evenodd"/><path fill="#000000" d="m24.078442 182.59122l4.234373 0q1.421875 0 2.171875 0.21875q1.015625 0.296875 1.7343769 1.0625q0.71875 0.75 1.09375 1.84375q0.375 1.09375 0.375 2.703125q0 1.421875 -0.359375 2.4375q-0.421875 1.25 -1.21875 2.03125q-0.6093769 0.578125 -1.6250019 0.90625q-0.765625 0.25 -2.046875 0.25l-4.359373 0l0 -11.453125zm2.312498 1.9375l0 7.578125l1.734375 0q0.96875 0 1.390625 -0.109375q0.5625 -0.140625 0.9375 -0.46875q0.375 -0.34375 0.609375 -1.109375q0.234375 -0.765625 0.234375 -2.09375q0 -1.328125 -0.234375 -2.03125q-0.234375 -0.71875 -0.65625 -1.109375q-0.421875 -0.40625 -1.078125 -0.546875q-0.484375 -0.109375 -1.890625 -0.109375l-1.046875 0z" fill-rule="nonzero"/><path fill="#a4c2f4" d="m53.322895 169.7434l37.795277 0l0 36.881897l-37.795277 0z" fill-rule="evenodd"/><path stroke="#595959" stroke-width="1.0" stroke-linejoin="round" stroke-linecap="butt" d="m53.322895 169.7434l37.795277 0l0 36.881897l-37.795277 0z" fill-rule="evenodd"/><path fill="#000000" d="m67.46272 190.30997l2.2499924 -0.21875q0.203125 1.140625 0.828125 1.671875q0.625 0.53125 1.671875 0.53125q1.125 0 1.6875 -0.46875q0.5625 -0.484375 0.5625 -1.109375q0 -0.40625 -0.234375 -0.6875q-0.234375 -0.296875 -0.828125 -0.5q-0.40625 -0.140625 -1.859375 -0.5q-1.859375 -0.46875 -2.6093674 -1.140625q-1.046875 -0.9375 -1.046875 -2.296875q0 -0.875 0.484375 -1.640625q0.5 -0.765625 1.4374924 -1.15625q0.9375 -0.40625 2.25 -0.40625q2.15625 0 3.25 0.953125q1.09375 0.9375 1.140625 2.515625l-2.3125 0.109375q-0.140625 -0.890625 -0.640625 -1.265625q-0.484375 -0.390625 -1.453125 -0.390625q-1.015625 0 -1.578125 0.40625q-0.375 0.265625 -0.375 0.71875q0 0.40625 0.34375 0.6875q0.4375 0.375 2.125 0.78125q1.6875 0.390625 2.5 0.8125q0.8125 0.421875 1.265625 1.171875q0.453125 0.734375 0.453125 1.8125q0 0.984375 -0.546875 1.84375q-0.546875 0.859375 -1.546875 1.28125q-1.0 0.421875 -2.484375 0.421875q-2.171875 0 -3.3437424 -1.0q-1.15625 -1.015625 -1.390625 -2.9375z" fill-rule="nonzero"/><path fill="#a4c2f4" d="m96.84127 169.7434l37.795265 0l0 36.881897l-37.795265 0z" fill-rule="evenodd"/><path stroke="#595959" stroke-width="1.0" stroke-linejoin="round" stroke-linecap="butt" d="m96.84127 169.7434l37.795265 0l0 36.881897l-37.795265 0z" fill-rule="evenodd"/><path fill="#000000" d="m114.60219 194.04434l0 -9.515625l-3.40625 0l0 -1.9375l9.109375 0l0 1.9375l-3.390625 0l0 9.515625l-2.3125 0z" fill-rule="nonzero"/><path fill="#6aa84f" d="m77.32158 141.64366l0 0c0 -10.184647 8.460762 -18.44094 18.897644 -18.44094l0 0c5.011963 0 9.818649 1.9428787 13.362648 5.401222c3.543991 3.4583435 5.5349884 8.14888 5.5349884 13.039719l0 0c0 10.184647 -8.460762 18.440948 -18.897636 18.440948l0 0c-10.436882 0 -18.897644 -8.256302 -18.897644 -18.440948z" fill-rule="evenodd"/><path stroke="#595959" stroke-width="1.0" stroke-linejoin="round" stroke-linecap="butt" d="m77.32158 141.64366l0 0c0 -10.184647 8.460762 -18.44094 18.897644 -18.44094l0 0c5.011963 0 9.818649 1.9428787 13.362648 5.401222c3.543991 3.4583435 5.5349884 8.14888 5.5349884 13.039719l0 0c0 10.184647 -8.460762 18.440948 -18.897636 18.440948l0 0c-10.436882 0 -18.897644 -8.256302 -18.897644 -18.440948z" fill-rule="evenodd"/><path fill="#000000" d="m99.950325 145.45679l0 2.046875l-7.6875 0q0.125 -1.15625 0.75 -2.1875q0.625 -1.046875 2.46875 -2.75q1.484375 -1.390625 1.8125 -1.875q0.453125 -0.6875 0.453125 -1.34375q0 -0.734375 -0.390625 -1.125q-0.390625 -0.40625 -1.09375 -0.40625q-0.6875 0 -1.09375 0.421875q-0.40625 0.40625 -0.46875 1.375l-2.1875 -0.21875q0.203125 -1.8125 1.234375 -2.59375q1.03125 -0.796875 2.578125 -0.796875q1.6875 0 2.65625 0.921875q0.96875 0.90625 0.96875 2.265625q0 0.765625 -0.28125 1.46875q-0.265625 0.703125 -0.875 1.46875q-0.390625 0.5 -1.4375 1.453125q-1.03125 0.953125 -1.3125 1.265625q-0.28125 0.3125 -0.453125 0.609375l4.359375 0z" fill-rule="nonzero"/><path fill="#eeeeee" d="m154.2599 107.00324l140.94487 0l0 107.77953l-140.94487 0z" fill-rule="evenodd"/><path stroke="#595959" stroke-width="1.0" stroke-linejoin="round" stroke-linecap="butt" d="m154.2599 107.00324l140.94487 0l0 107.77953l-140.94487 0z" fill-rule="evenodd"/><path fill="#eeeeee" d="m305.77173 107.01899l140.94485 0l0 107.77953l-140.94485 0z" fill-rule="evenodd"/><path stroke="#595959" stroke-width="1.0" stroke-linejoin="round" stroke-linecap="butt" d="m305.77173 107.01899l140.94485 0l0 107.77953l-140.94485 0z" fill-rule="evenodd"/><path fill="#a4c2f4" d="m205.10898 169.7434l37.795288 0l0 36.881897l-37.795288 0z" fill-rule="evenodd"/><path stroke="#595959" stroke-width="1.0" stroke-linejoin="round" stroke-linecap="butt" d="m205.10898 169.7434l37.795288 0l0 36.881897l-37.795288 0z" fill-rule="evenodd"/><path fill="#000000" d="m222.8699 194.04434l0 -9.515625l-3.40625 0l0 -1.9375l9.109375 0l0 1.9375l-3.390625 0l0 9.515625l-2.3125 0z" fill-rule="nonzero"/><path fill="#a4c2f4" d="m358.0696 171.13185l37.795288 0l0 36.881897l-37.795288 0z" fill-rule="evenodd"/><path stroke="#595959" stroke-width="1.0" stroke-linejoin="round" stroke-linecap="butt" d="m358.0696 171.13185l37.795288 0l0 36.881897l-37.795288 0z" fill-rule="evenodd"/><path fill="#000000" d="m375.83054 195.4328l0 -9.515625l-3.40625 0l0 -1.9375l9.109375 0l0 1.9375l-3.390625 0l0 9.515625l-2.3125 0z" fill-rule="nonzero"/><path fill="#a4c2f4" d="m311.60373 171.13185l37.795288 0l0 36.881897l-37.795288 0z" fill-rule="evenodd"/><path stroke="#595959" stroke-width="1.0" stroke-linejoin="round" stroke-linecap="butt" d="m311.60373 171.13185l37.795288 0l0 36.881897l-37.795288 0z" fill-rule="evenodd"/><path fill="#000000" d="m325.74356 191.69843l2.25 -0.21875q0.203125 1.140625 0.828125 1.671875q0.625 0.53125 1.671875 0.53125q1.125 0 1.6875 -0.46875q0.5625 -0.484375 0.5625 -1.109375q0 -0.40625 -0.234375 -0.6875q-0.234375 -0.296875 -0.828125 -0.5q-0.40625 -0.140625 -1.859375 -0.5q-1.859375 -0.46875 -2.609375 -1.140625q-1.046875 -0.9375 -1.046875 -2.296875q0 -0.875 0.484375 -1.640625q0.5 -0.765625 1.4375 -1.15625q0.9375 -0.40625 2.25 -0.40625q2.15625 0 3.25 0.953125q1.09375 0.9375 1.140625 2.515625l-2.3125 0.109375q-0.140625 -0.890625 -0.640625 -1.265625q-0.484375 -0.390625 -1.453125 -0.390625q-1.015625 0 -1.578125 0.40625q-0.375 0.265625 -0.375 0.71875q0 0.40625 0.34375 0.6875q0.4375 0.375 2.125 0.78125q1.6875 0.390625 2.5 0.8125q0.8125 0.421875 1.265625 1.171875q0.453125 0.734375 0.453125 1.8125q0 0.984375 -0.546875 1.84375q-0.546875 0.859375 -1.546875 1.28125q-1.0 0.421875 -2.484375 0.421875q-2.171875 0 -3.34375 -1.0q-1.15625 -1.015625 -1.390625 -2.9375z" fill-rule="nonzero"/><path fill="#a4c2f4" d="m159.36751 169.7434l37.795288 0l0 36.881897l-37.795288 0z" fill-rule="evenodd"/><path stroke="#595959" stroke-width="1.0" stroke-linejoin="round" stroke-linecap="butt" d="m159.36751 169.7434l37.795288 0l0 36.881897l-37.795288 0z" fill-rule="evenodd"/><path fill="#000000" d="m173.50734 190.30997l2.25 -0.21875q0.203125 1.140625 0.828125 1.671875q0.625 0.53125 1.671875 0.53125q1.125 0 1.6875 -0.46875q0.5625 -0.484375 0.5625 -1.109375q0 -0.40625 -0.234375 -0.6875q-0.234375 -0.296875 -0.828125 -0.5q-0.40625 -0.140625 -1.859375 -0.5q-1.859375 -0.46875 -2.609375 -1.140625q-1.046875 -0.9375 -1.046875 -2.296875q0 -0.875 0.484375 -1.640625q0.5 -0.765625 1.4375 -1.15625q0.9375 -0.40625 2.25 -0.40625q2.15625 0 3.25 0.953125q1.09375 0.9375 1.140625 2.515625l-2.3125 0.109375q-0.140625 -0.890625 -0.640625 -1.265625q-0.484375 -0.390625 -1.453125 -0.390625q-1.015625 0 -1.578125 0.40625q-0.375 0.265625 -0.375 0.71875q0 0.40625 0.34375 0.6875q0.4375 0.375 2.125 0.78125q1.6875 0.390625 2.5 0.8125q0.8125 0.421875 1.265625 1.171875q0.453125 0.734375 0.453125 1.8125q0 0.984375 -0.546875 1.84375q-0.546875 0.859375 -1.546875 1.28125q-1.0 0.421875 -2.484375 0.421875q-2.171875 0 -3.34375 -1.0q-1.15625 -1.015625 -1.390625 -2.9375z" fill-rule="nonzero"/><path fill="#a4c2f4" d="m250.85387 169.7434l37.795273 0l0 36.881897l-37.795273 0z" fill-rule="evenodd"/><path stroke="#595959" stroke-width="1.0" stroke-linejoin="round" stroke-linecap="butt" d="m250.85387 169.7434l37.795273 0l0 36.881897l-37.795273 0z" fill-rule="evenodd"/><path fill="#000000" d="m268.58743 194.04434l0 -4.828125l-4.203125 -6.625l2.71875 0l2.703125 4.53125l2.640625 -4.53125l2.65625 0l-4.203125 6.640625l0 4.8125l-2.3125 0z" fill-rule="nonzero"/><path fill="#a4c2f4" d="m403.0901 171.13185l37.795258 0l0 36.881897l-37.795258 0z" fill-rule="evenodd"/><path stroke="#595959" stroke-width="1.0" stroke-linejoin="round" stroke-linecap="butt" d="m403.0901 171.13185l37.795258 0l0 36.881897l-37.795258 0z" fill-rule="evenodd"/><path fill="#000000" d="m417.2729 195.4328l0 -2.09375l6.015625 -7.421875l-5.328125 0l0 -1.9375l8.375 0l0 1.796875l-6.265625 7.71875l6.515625 0l0 1.9375l-9.3125 0z" fill-rule="nonzero"/><path fill="#6aa84f" d="m181.83339 139.07805l0 0c0 -10.184662 8.46077 -18.440948 18.897644 -18.440948l0 0c5.011963 0 9.818649 1.9428787 13.36264 5.40123c3.5440063 3.4583435 5.5349884 8.14888 5.5349884 13.039719l0 0c0 10.184647 -8.460754 18.440948 -18.897629 18.440948l0 0c-10.436874 0 -18.897644 -8.256302 -18.897644 -18.440948z" fill-rule="evenodd"/><path stroke="#595959" stroke-width="1.0" stroke-linejoin="round" stroke-linecap="butt" d="m181.83339 139.07805l0 0c0 -10.184662 8.46077 -18.440948 18.897644 -18.440948l0 0c5.011963 0 9.818649 1.9428787 13.36264 5.40123c3.5440063 3.4583435 5.5349884 8.14888 5.5349884 13.039719l0 0c0 10.184647 -8.460754 18.440948 -18.897629 18.440948l0 0c-10.436874 0 -18.897644 -8.256302 -18.897644 -18.440948z" fill-rule="evenodd"/><path fill="#000000" d="m196.97775 141.89117l2.125 -0.25q0.09375 0.8125 0.53125 1.25q0.453125 0.421875 1.09375 0.421875q0.671875 0 1.140625 -0.515625q0.46875 -0.515625 0.46875 -1.390625q0 -0.828125 -0.453125 -1.3125q-0.4375 -0.484375 -1.078125 -0.484375q-0.421875 0 -1.015625 0.15625l0.25 -1.78125q0.890625 0.015625 1.359375 -0.390625q0.46875 -0.40625 0.46875 -1.09375q0 -0.578125 -0.34375 -0.921875q-0.34375 -0.34375 -0.921875 -0.34375q-0.5625 0 -0.96875 0.390625q-0.390625 0.390625 -0.46875 1.140625l-2.03125 -0.34375q0.21875 -1.03125 0.640625 -1.65625q0.421875 -0.625 1.1875 -0.96875q0.765625 -0.359375 1.703125 -0.359375q1.625 0 2.59375 1.03125q0.8125 0.84375 0.8125 1.90625q0 1.5 -1.65625 2.40625q0.984375 0.203125 1.578125 0.9375q0.59375 0.734375 0.59375 1.78125q0 1.5 -1.109375 2.578125q-1.09375 1.0625 -2.734375 1.0625q-1.5625 0 -2.59375 -0.890625q-1.015625 -0.90625 -1.171875 -2.359375z" fill-rule="nonzero"/><path fill="#6aa84f" d="m334.0696 142.0308l0 0c0 -10.184662 8.460754 -18.440948 18.897644 -18.440948l0 0c5.011963 0 9.818665 1.9428787 13.36264 5.40123c3.5440063 3.4583435 5.5350037 8.148865 5.5350037 13.039719l0 0c0 10.184647 -8.460785 18.440933 -18.897644 18.440933l0 0c-10.43689 0 -18.897644 -8.256287 -18.897644 -18.440933z" fill-rule="evenodd"/><path stroke="#595959" stroke-width="1.0" stroke-linejoin="round" stroke-linecap="butt" d="m334.0696 142.0308l0 0c0 -10.184662 8.460754 -18.440948 18.897644 -18.440948l0 0c5.011963 0 9.818665 1.9428787 13.36264 5.40123c3.5440063 3.4583435 5.5350037 8.148865 5.5350037 13.039719l0 0c0 10.184647 -8.460785 18.440933 -18.897644 18.440933l0 0c-10.43689 0 -18.897644 -8.256287 -18.897644 -18.440933z" fill-rule="evenodd"/><path fill="#000000" d="m353.589 147.89081l0 -2.3125l-4.6875 0l0 -1.921875l4.96875 -7.265625l1.84375 0l0 7.265625l1.421875 0l0 1.921875l-1.421875 0l0 2.3125l-2.125 0zm0 -4.234375l0 -3.921875l-2.625 3.921875l2.625 0z" fill-rule="nonzero"/><path fill="#a4c2f4" d="m8.841268 121.7434l37.795277 0l0 36.88189l-37.795277 0z" fill-rule="evenodd"/><path stroke="#595959" stroke-width="1.0" stroke-linejoin="round" stroke-linecap="butt" d="m8.841268 121.7434l37.795277 0l0 36.88189l-37.795277 0z" fill-rule="evenodd"/><path fill="#000000" d="m22.402967 146.04434l3.921873 -5.984375l-3.546873 -5.46875l2.703123 0l2.296875 3.671875l2.25 -3.671875l2.671875 0l-3.5625 5.5625l3.921875 5.890625l-2.796875 0l-2.53125 -3.96875l-2.546875 3.96875l-2.781248 0z" fill-rule="nonzero"/><path fill="#000000" fill-opacity="0.0" d="m115.73891 169.7434l-6.1417313 -15.055115" fill-rule="evenodd"/><path stroke="#595959" stroke-width="1.0" stroke-linejoin="round" stroke-linecap="butt" d="m115.73891 169.7434l-3.8753662 -9.499619" fill-rule="evenodd"/><path fill="#595959" stroke="#595959" stroke-width="1.0" stroke-linecap="butt" d="m113.39291 159.61987l-3.2435303 -3.5779877l0.1847992 4.8258057z" fill-rule="evenodd"/><path fill="#000000" fill-opacity="0.0" d="m72.220535 169.7434l10.645668 -15.055115" fill-rule="evenodd"/><path stroke="#595959" stroke-width="1.0" stroke-linejoin="round" stroke-linecap="butt" d="m72.220535 169.7434l7.181549 -10.156158" fill-rule="evenodd"/><path fill="#595959" stroke="#595959" stroke-width="1.0" stroke-linecap="butt" d="m80.75071 160.54088l1.2714615 -4.658966l-3.9687195 2.7516937z" fill-rule="evenodd"/><path fill="#000000" fill-opacity="0.0" d="m77.32158 141.64366l-30.677162 -1.448822" fill-rule="evenodd"/><path stroke="#595959" stroke-width="1.0" stroke-linejoin="round" stroke-linecap="butt" d="m77.32159 141.64366l-24.68385 -1.1657715" fill-rule="evenodd"/><path fill="#595959" stroke="#595959" stroke-width="1.0" stroke-linecap="butt" d="m52.71566 138.828l-4.6109657 1.4358063l4.455124 1.8639832z" fill-rule="evenodd"/><path fill="#000000" fill-opacity="0.0" d="m178.26602 169.75555l9.102356 -17.637787" fill-rule="evenodd"/><path stroke="#595959" stroke-width="1.0" stroke-linejoin="round" stroke-linecap="butt" d="m178.26602 169.75555l6.3507385 -12.305939" fill-rule="evenodd"/><path fill="#595959" stroke="#595959" stroke-width="1.0" stroke-linecap="butt" d="m186.08456 158.20709l0.61338806 -4.790222l-3.548996 3.2752533z" fill-rule="evenodd"/><path fill="#000000" fill-opacity="0.0" d="m214.09367 152.11777l9.921265 17.637787" fill-rule="evenodd"/><path stroke="#595959" stroke-width="1.0" stroke-linejoin="round" stroke-linecap="butt" d="m214.09369 152.11777l6.979706 12.40834" fill-rule="evenodd"/><path fill="#595959" stroke="#595959" stroke-width="1.0" stroke-linecap="butt" d="m219.63377 165.33589l3.6644592 3.1455078l-0.7852478 -4.7650757z" fill-rule="evenodd"/><path fill="#000000" fill-opacity="0.0" d="m330.50137 171.13185l9.102356 -16.062988" fill-rule="evenodd"/><path stroke="#595959" stroke-width="1.0" stroke-linejoin="round" stroke-linecap="butt" d="m330.50137 171.13185l6.144287 -10.842865" fill-rule="evenodd"/><path fill="#595959" stroke="#595959" stroke-width="1.0" stroke-linecap="butt" d="m338.0827 161.10332l0.80029297 -4.7625732l-3.6743774 3.1339264z" fill-rule="evenodd"/><path fill="#000000" fill-opacity="0.0" d="m376.96725 171.13185l-10.64566 -16.062988" fill-rule="evenodd"/><path stroke="#595959" stroke-width="1.0" stroke-linejoin="round" stroke-linecap="butt" d="m376.96722 171.13185l-7.3310547 -11.061661" fill-rule="evenodd"/><path fill="#595959" stroke="#595959" stroke-width="1.0" stroke-linecap="butt" d="m371.01297 159.15771l-3.883789 -2.870285l1.130188 4.695236z" fill-rule="evenodd"/><path fill="#000000" fill-opacity="0.0" d="m219.62866 139.07805l50.11023 0l0 30.67717" fill-rule="evenodd"/><path stroke="#595959" stroke-width="1.0" stroke-linejoin="round" stroke-linecap="butt" d="m219.62868 139.07805l50.110214 0l0 24.677155" fill-rule="evenodd"/><path fill="#595959" stroke="#595959" stroke-width="1.0" stroke-linecap="butt" d="m268.0872 163.7552l1.6517029 4.538101l1.6517334 -4.538101z" fill-rule="evenodd"/><path fill="#000000" fill-opacity="0.0" d="m371.8649 142.0308l50.11023 0l0 29.102356" fill-rule="evenodd"/><path stroke="#595959" stroke-width="1.0" stroke-linejoin="round" stroke-linecap="butt" d="m371.86487 142.03079l50.11023 0l0 23.102371" fill-rule="evenodd"/><path fill="#595959" stroke="#595959" stroke-width="1.0" stroke-linecap="butt" d="m420.32336 165.13316l1.6517334 4.538101l1.6517334 -4.538101z" fill-rule="evenodd"/><path fill="#eeeeee" d="m159.69298 37.66991l0 0c0 -19.864857 28.808884 -35.968506 64.34645 -35.968506l0 0c35.537567 0 64.346466 16.103647 64.346466 35.968506l0 0c0 19.864857 -28.808899 35.968502 -64.346466 35.968502l0 0c-35.537567 0 -64.34645 -16.103645 -64.34645 -35.968502z" fill-rule="evenodd"/><path stroke="#595959" stroke-width="1.0" stroke-linejoin="round" stroke-linecap="butt" d="m159.69298 37.66991l0 0c0 -19.864857 28.808884 -35.968506 64.34645 -35.968506l0 0c35.537567 0 64.346466 16.103647 64.346466 35.968506l0 0c0 19.864857 -28.808899 35.968502 -64.346466 35.968502l0 0c-35.537567 0 -64.34645 -16.103645 -64.34645 -35.968502z" fill-rule="evenodd"/><path fill="#000000" d="m191.12553 43.80991l0 -12.406252l2.46875 0l2.9375 8.781252q0.40625 1.234375 0.59375 1.84375q0.21875 -0.6875 0.65625 -2.0l2.984375 -8.625002l2.203125 0l0 12.406252l-1.578125 0l0 -10.375l-3.609375 10.375l-1.484375 0l-3.578125 -10.5625l0 10.5625l-1.59375 0zm20.153214 -1.109375q-0.84375 0.71875 -1.625 1.015625q-0.78125 0.296875 -1.671875 0.296875q-1.484375 0 -2.28125 -0.71875q-0.796875 -0.734375 -0.796875 -1.859375q0 -0.65625 0.296875 -1.203125q0.3125 -0.546875 0.796875 -0.875q0.484375 -0.328125 1.09375 -0.5q0.4375 -0.109375 1.34375 -0.21875q1.84375 -0.21875 2.71875 -0.53125q0.015625 -0.3125 0.015625 -0.390625q0 -0.9375 -0.4375 -1.3125q-0.578125 -0.515625 -1.734375 -0.515625q-1.078125 0 -1.59375 0.375q-0.5 0.375 -0.75 1.328125l-1.484375 -0.203125q0.203125 -0.953125 0.65625 -1.53125q0.46875 -0.59375 1.34375 -0.90625q0.890625 -0.328125 2.046875 -0.328125q1.15625 0 1.875 0.28125q0.71875 0.265625 1.046875 0.671875q0.34375 0.40625 0.484375 1.03125q0.078125 0.390625 0.078125 1.40625l0 2.03125q0 2.125 0.09375 2.6875q0.09375 0.5625 0.390625 1.078125l-1.59375 0q-0.234375 -0.46875 -0.3125 -1.109375zm-0.125 -3.40625q-0.828125 0.34375 -2.484375 0.578125q-0.9375 0.140625 -1.328125 0.3125q-0.390625 0.171875 -0.609375 0.5q-0.203125 0.3125 -0.203125 0.71875q0 0.609375 0.453125 1.015625q0.46875 0.40625 1.359375 0.40625q0.875 0 1.5625 -0.390625q0.6875 -0.390625 1.015625 -1.046875q0.234375 -0.515625 0.234375 -1.53125l0 -0.5625zm3.90271 4.515625l0 -8.984375l1.375 0l0 1.28125q0.984375 -1.484375 2.859375 -1.484375q0.8125 0 1.484375 0.296875q0.6875 0.28125 1.015625 0.765625q0.34375 0.46875 0.484375 1.125q0.078125 0.421875 0.078125 1.46875l0 5.53125l-1.515625 0l0 -5.46875q0 -0.921875 -0.1875 -1.375q-0.171875 -0.46875 -0.625 -0.75q-0.453125 -0.28125 -1.0625 -0.28125q-0.96875 0 -1.671875 0.625q-0.703125 0.609375 -0.703125 2.34375l0 4.90625l-1.53125 0zm15.49646 -1.109375q-0.84375 0.71875 -1.625 1.015625q-0.78125 0.296875 -1.671875 0.296875q-1.484375 0 -2.28125 -0.71875q-0.796875 -0.734375 -0.796875 -1.859375q0 -0.65625 0.296875 -1.203125q0.3125 -0.546875 0.796875 -0.875q0.484375 -0.328125 1.09375 -0.5q0.4375 -0.109375 1.34375 -0.21875q1.84375 -0.21875 2.71875 -0.53125q0.015625 -0.3125 0.015625 -0.390625q0 -0.9375 -0.4375 -1.3125q-0.578125 -0.515625 -1.734375 -0.515625q-1.078125 0 -1.59375 0.375q-0.5 0.375 -0.75 1.328125l-1.484375 -0.203125q0.203125 -0.953125 0.65625 -1.53125q0.46875 -0.59375 1.34375 -0.90625q0.890625 -0.328125 2.046875 -0.328125q1.15625 0 1.875 0.28125q0.71875 0.265625 1.046875 0.671875q0.34375 0.40625 0.484375 1.03125q0.078125 0.390625 0.078125 1.40625l0 2.03125q0 2.125 0.09375 2.6875q0.09375 0.5625 0.390625 1.078125l-1.59375 0q-0.234375 -0.46875 -0.3125 -1.109375zm-0.125 -3.40625q-0.828125 0.34375 -2.484375 0.578125q-0.9375 0.140625 -1.328125 0.3125q-0.390625 0.171875 -0.609375 0.5q-0.203125 0.3125 -0.203125 0.71875q0 0.609375 0.453125 1.015625q0.46875 0.40625 1.359375 0.40625q0.875 0 1.5625 -0.390625q0.6875 -0.390625 1.015625 -1.046875q0.234375 -0.515625 0.234375 -1.53125l0 -0.5625zm3.62146 5.265621l1.484375 0.21875q0.09375 0.6875 0.515625 1.0q0.5625 0.421875 1.546875 0.421875q1.0625 0 1.625 -0.421875q0.578125 -0.421875 0.78125 -1.1875q0.125 -0.4687462 0.109375 -1.9531212q-0.984375 1.171875 -2.484375 1.171875q-1.84375 0 -2.859375 -1.328125q-1.015625 -1.34375 -1.015625 -3.21875q0 -1.28125 0.453125 -2.359375q0.46875 -1.09375 1.34375 -1.6875q0.890625 -0.59375 2.09375 -0.59375q1.59375 0 2.625 1.28125l0 -1.078125l1.40625 0l0 7.765625q0 2.0937462 -0.4375 2.9687462q-0.421875 0.875 -1.359375 1.375q-0.921875 0.515625 -2.265625 0.515625q-1.609375 0 -2.609375 -0.71875q-0.984375 -0.71875 -0.953125 -2.171875zm1.265625 -5.406246q0 1.765625 0.703125 2.578125q0.703125 0.8125 1.75 0.8125q1.0625 0 1.765625 -0.796875q0.71875 -0.8125 0.71875 -2.546875q0 -1.640625 -0.734375 -2.46875q-0.734375 -0.84375 -1.765625 -0.84375q-1.015625 0 -1.734375 0.828125q-0.703125 0.8125 -0.703125 2.4375zm14.80896 1.765625l1.5625 0.1875q-0.359375 1.390625 -1.375 2.15625q-1.0 0.75 -2.5625 0.75q-1.984375 0 -3.140625 -1.203125q-1.140625 -1.21875 -1.140625 -3.421875q0 -2.265625 1.15625 -3.515625q1.171875 -1.25 3.03125 -1.25q1.8125 0 2.953125 1.234375q1.140625 1.21875 1.140625 3.4375q0 0.140625 -0.015625 0.40625l-6.703125 0q0.09375 1.484375 0.84375 2.28125q0.75 0.78125 1.875 0.78125q0.84375 0 1.4375 -0.4375q0.59375 -0.4375 0.9375 -1.40625zm-5.0 -2.46875l5.015625 0q-0.109375 -1.125 -0.578125 -1.703125q-0.734375 -0.875 -1.890625 -0.875q-1.046875 0 -1.765625 0.703125q-0.703125 0.703125 -0.78125 1.875zm8.46521 5.359375l0 -8.984375l1.375 0l0 1.359375q0.515625 -0.953125 0.953125 -1.25q0.453125 -0.3125 0.984375 -0.3125q0.78125 0 1.5625 0.484375l-0.515625 1.421875q-0.5625 -0.328125 -1.125 -0.328125q-0.5 0 -0.890625 0.296875q-0.390625 0.296875 -0.5625 0.828125q-0.265625 0.8125 -0.265625 1.78125l0 4.703125l-1.515625 0z" fill-rule="nonzero"/><path fill="#000000" fill-opacity="0.0" d="m224.03943 73.63841l0.69291687 33.354332" fill-rule="evenodd"/><path stroke="#595959" stroke-width="1.0" stroke-linejoin="round" stroke-linecap="butt" d="m224.03943 73.63841l0.56829834 27.355621" fill-rule="evenodd"/><path fill="#595959" stroke="#595959" stroke-width="1.0" stroke-linecap="butt" d="m222.95634 101.02834l1.745636 4.5028076l1.5571289 -4.571419z" fill-rule="evenodd"/><path fill="#000000" fill-opacity="0.0" d="m269.53925 63.10348l106.70865 43.905514" fill-rule="evenodd"/><path stroke="#595959" stroke-width="1.0" stroke-linejoin="round" stroke-linecap="butt" d="m269.53925 63.103485l101.15997 41.62249" fill-rule="evenodd"/><path fill="#595959" stroke="#595959" stroke-width="1.0" stroke-linecap="butt" d="m370.07074 106.25346l4.825226 0.19927216l-3.5682373 -3.2542496z" fill-rule="evenodd"/></g></svg>