<svg version="1.1" viewBox="0.0 0.0 960.0 540.0" fill="none" stroke="none" stroke-linecap="square" stroke-miterlimit="10" xmlns:xlink="http://www.w3.org/1999/xlink" xmlns="http://www.w3.org/2000/svg"><clipPath id="g1f5f036ee32_6_252.0"><path d="m0 0l960.0 0l0 540.0l-960.0 0l0 -540.0z" clip-rule="nonzero"/></clipPath><g clip-path="url(#g1f5f036ee32_6_252.0)"><path fill="#ffffff" d="m0 0l960.0 0l0 540.0l-960.0 0z" fill-rule="evenodd"/><path fill="#eeeeee" d="m2.7492163 107.87333l140.94487 0l0 107.77952l-140.94487 0z" fill-rule="evenodd"/><path stroke="#595959" stroke-width="1.0" stroke-linejoin="round" stroke-linecap="butt" d="m2.7492163 107.87333l140.94487 0l0 107.77952l-140.94487 0z" fill-rule="evenodd"/><path fill="#000000" d="m50.022106 202.29285l-2.75 -8.984375l1.578125 0l1.421875 5.1875l0.546875 1.921875q0.03125 -0.140625 0.453125 -1.84375l1.4375 -5.265625l1.5625 0l1.34375 5.203125l0.453125 1.71875l0.515625 -1.734375l1.53125 -5.1875l1.484375 0l-2.8125 8.984375l-1.578125 0l-1.421875 -5.375l-0.359375 -1.53125l-1.8125 6.90625l-1.59375 0zm10.295074 -4.5q0 -2.484375 1.390625 -3.6875q1.15625 -1.0 2.8124962 -1.0q1.859375 0 3.03125 1.21875q1.1875 1.203125 1.1875 3.34375q0 1.734375 -0.53125 2.734375q-0.515625 1.0 -1.515625 1.546875q-0.984375 0.546875 -2.171875 0.546875q-1.8749962 0 -3.0468712 -1.203125q-1.15625 -1.21875 -1.15625 -3.5zm1.5625 0q0 1.734375 0.75 2.59375q0.75 0.859375 1.8906212 0.859375q1.140625 0 1.890625 -0.859375q0.75 -0.875 0.75 -2.640625q0 -1.65625 -0.75 -2.515625q-0.75 -0.859375 -1.890625 -0.859375q-1.1406212 0 -1.8906212 0.859375q-0.75 0.84375 -0.75 2.5625zm8.621456 4.5l0 -8.984375l1.375 0l0 1.359375q0.515625 -0.953125 0.953125 -1.25q0.453125 -0.3125 0.984375 -0.3125q0.78125 0 1.5625 0.484375l-0.515625 1.421875q-0.5625 -0.328125 -1.125 -0.328125q-0.5 0 -0.890625 0.296875q-0.390625 0.296875 -0.5625 0.828125q-0.265625 0.8125 -0.265625 1.78125l0 4.703125l-1.515625 0zm5.801651 0l0 -12.40625l1.515625 0l0 7.078125l3.609375 -3.65625l1.96875 0l-3.4375 3.328125l3.78125 5.65625l-1.875 0l-2.96875 -4.59375l-1.078125 1.03125l0 3.5625l-1.515625 0zm14.8046875 -2.890625l1.5625 0.1875q-0.359375 1.390625 -1.375 2.15625q-1.0 0.75 -2.5625 0.75q-1.984375 0 -3.140625 -1.203125q-1.140625 -1.21875 -1.140625 -3.421875q0 -2.265625 1.15625 -3.515625q1.171875 -1.25 3.03125 -1.25q1.8125 0 2.953125 1.234375q1.140625 1.21875 1.140625 3.4375q0 0.140625 -0.015625 0.40625l-6.703125 0q0.09375 1.484375 0.84375 2.28125q0.75 0.78125 1.875 0.78125q0.84375 0 1.4375 -0.4375q0.59375 -0.4375 0.9375 -1.40625zm-5.0 -2.46875l5.015625 0q-0.109375 -1.125 -0.578125 -1.703125q-0.734375 -0.875 -1.890625 -0.875q-1.046875 0 -1.765625 0.703125q-0.703125 0.703125 -0.78125 1.875zm8.46521 5.359375l0 -8.984375l1.375 0l0 1.359375q0.515625 -0.953125 0.953125 -1.25q0.453125 -0.3125 0.984375 -0.3125q0.78125 0 1.5625 0.484375l-0.515625 1.421875q-0.5625 -0.328125 -1.125 -0.328125q-0.5 0 -0.890625 0.296875q-0.390625 0.296875 -0.5625 0.828125q-0.265625 0.8125 -0.265625 1.78125l0 4.703125l-1.515625 0z" fill-rule="nonzero"/><path fill="#eeeeee" d="m339.78064 21.714716l0 0c0 -7.138631 16.325745 -12.925634 36.46457 -12.925634c20.138824 0 36.46457 5.7870035 36.46457 12.925634l0 51.702538c0 7.1386337 -16.325745 12.925636 -36.46457 12.925636c-20.138824 0 -36.46457 -5.7870026 -36.46457 -12.925636z" fill-rule="evenodd"/><path fill="#000000" fill-opacity="0.0" d="m412.70978 21.714716l0 0c0 7.138632 -16.325745 12.925634 -36.46457 12.925634c-20.138824 0 -36.46457 -5.7870026 -36.46457 -12.925634" fill-rule="evenodd"/><path fill="#000000" fill-opacity="0.0" d="m339.78064 21.714716l0 0c0 -7.138631 16.325745 -12.925634 36.46457 -12.925634c20.138824 0 36.46457 5.7870035 36.46457 12.925634l0 51.702538c0 7.1386337 -16.325745 12.925636 -36.46457 12.925636c-20.138824 0 -36.46457 -5.7870026 -36.46457 -12.925636z" fill-rule="evenodd"/><path stroke="#595959" stroke-width="1.0" stroke-linejoin="round" stroke-linecap="butt" d="m412.70978 21.714716l0 0c0 7.138632 -16.325745 12.925634 -36.46457 12.925634c-20.138824 0 -36.46457 -5.7870026 -36.46457 -12.925634" fill-rule="evenodd"/><path stroke="#595959" stroke-width="1.0" stroke-linejoin="round" stroke-linecap="butt" d="m339.78064 21.714716l0 0c0 -7.138631 16.325745 -12.925634 36.46457 -12.925634c20.138824 0 36.46457 5.7870035 36.46457 12.925634l0 51.702538c0 7.1386337 -16.325745 12.925636 -36.46457 12.925636c-20.138824 0 -36.46457 -5.7870026 -36.46457 -12.925636z" fill-rule="evenodd"/><path fill="#000000" d="m366.5959 60.1688l0 -12.40625l8.375 0l0 1.46875l-6.734375 0l0 3.84375l5.828125 0l0 1.453125l-5.828125 0l0 5.640625l-1.640625 0zm9.944092 -3.984375l1.546875 -0.140625q0.109375 0.9375 0.5 1.53125q0.40625 0.59375 1.25 0.96875q0.859375 0.359375 1.90625 0.359375q0.9375 0 1.65625 -0.265625q0.734375 -0.28125 1.078125 -0.765625q0.34375 -0.5 0.34375 -1.078125q0 -0.578125 -0.34375 -1.015625q-0.328125 -0.4375 -1.109375 -0.734375q-0.5 -0.1875 -2.203125 -0.59375q-1.703125 -0.421875 -2.390625 -0.78125q-0.890625 -0.46875 -1.328125 -1.15625q-0.4375 -0.6875 -0.4375 -1.546875q0 -0.9375 0.53125 -1.75q0.53125 -0.8125 1.546875 -1.234375q1.03125 -0.421875 2.296875 -0.421875q1.375 0 2.421875 0.4375q1.0625 0.4375 1.625 1.3125q0.5625 0.859375 0.609375 1.953125l-1.578125 0.109375q-0.125 -1.171875 -0.859375 -1.765625q-0.734375 -0.609375 -2.15625 -0.609375q-1.484375 0 -2.171875 0.546875q-0.6875 0.546875 -0.6875 1.3125q0 0.671875 0.484375 1.109375q0.484375 0.421875 2.484375 0.875q2.0 0.453125 2.734375 0.796875q1.09375 0.5 1.609375 1.265625q0.515625 0.765625 0.515625 1.765625q0 0.984375 -0.578125 1.859375q-0.5625 0.875 -1.625 1.375q-1.0625 0.484375 -2.390625 0.484375q-1.6875 0 -2.828125 -0.484375q-1.125 -0.5 -1.78125 -1.484375q-0.640625 -0.984375 -0.671875 -2.234375z" fill-rule="nonzero"/><path fill="#eeeeee" d="m23.546757 35.527954l0 0c-0.8103523 -5.802391 1.850193 -11.54641 6.852667 -14.794653c5.002474 -3.2482433 11.469549 -3.4310417 16.657011 -0.4708252l0 0c1.8375587 -3.3737526 5.200821 -5.7030964 9.072475 -6.283449c3.8716507 -0.58035374 7.7969475 0.65644836 10.588566 3.336296l0 0c1.565361 -3.0588598 4.638977 -5.114024 8.130173 -5.4362116c3.491188 -0.32218742 6.9058685 1.1341991 9.032326 3.852357l0 0c2.8280563 -3.242385 7.3275604 -4.607563 11.551559 -3.504816c4.223999 1.1027479 7.4138184 4.475359 8.189209 8.658485l0 0c3.4648438 0.92085075 6.3509903 3.261776 7.9127426 6.4179554c1.56176 3.1561794 1.6459198 6.818001 0.23074341 10.03936l0 0c3.4118652 4.326645 4.209984 10.091843 2.0965195 15.144127c-2.113472 5.0522842 -6.820999 8.6326065 -12.365829 9.404858c-0.03908539 4.741749 -2.7080765 9.092724 -6.9782257 11.375858c-4.270157 2.283142 -9.47467 2.1419296 -13.607506 -0.36920166l0 0c-1.7603683 5.679062 -6.7152176 9.857666 -12.723862 10.730492c-6.0086517 0.87283325 -11.993935 -1.7165833 -15.3699875 -6.649521l0 0c-4.138336 2.4314575 -9.103992 3.1318817 -13.776821 1.9432755c-4.6728287 -1.1886139 -8.659212 -4.1661377 -11.059902 -8.260902l0 0c-4.228859 0.4821701 -8.317581 -1.6526108 -10.236948 -5.3448486c-1.9193678 -3.6922417 -1.2607918 -8.15596 1.6488762 -11.175823l0 0c-3.772252 -2.163288 -5.6970816 -6.455967 -4.770767 -10.639572c0.92631435 -4.183609 4.493868 -7.3101234 8.842321 -7.7491913z" fill-rule="evenodd"/><path fill="#000000" fill-opacity="0.0" d="m19.391611 54.140354l0 0c1.7801361 1.0208588 3.8366127 1.4839478 5.8933105 1.3270836m2.6938343 15.193954c0.88445663 -0.10084534 1.7513924 -0.3143921 2.5784473 -0.6351471m22.25704 6.952507c-0.6220703 -0.90893555 -1.1428986 -1.8802185 -1.5536118 -2.897293m29.648533 -1.1838455l0 0c0.32094574 -1.0353775 0.5288849 -2.1010056 0.6203613 -3.1791077m19.964592 -7.8271523c0.041610718 -5.0483246 -2.9012146 -9.67062 -7.564453 -11.881477m17.833664 -12.666969c-0.7551956 1.7190475 -1.908081 3.2439957 -3.3682785 4.455269m-4.774498 -20.913038l0 0c0.12866974 0.694191 0.18822479 1.3988171 0.17782593 2.104107m-19.918259 -7.2575655l0 0c-0.7054596 0.80881405 -1.2866669 1.7126532 -1.7255173 2.6833735m-15.437141 -1.0998707l0 0c-0.37594604 0.7346382 -0.6566849 1.5120125 -0.83573914 2.3142147m-18.825588 0.6329975l0 0c1.0976601 0.626379 2.1131477 1.3802948 3.0241547 2.245184m-26.533531 13.020376l0 0c0.11168671 0.79972076 0.28815842 1.5895844 0.52776337 2.3621902" fill-rule="evenodd"/><path stroke="#595959" stroke-width="1.0" stroke-linejoin="round" stroke-linecap="butt" d="m23.546757 35.527954l0 0c-0.8103523 -5.802391 1.850193 -11.54641 6.852667 -14.794653c5.002474 -3.2482433 11.469549 -3.4310417 16.657011 -0.4708252l0 0c1.8375587 -3.3737526 5.200821 -5.7030964 9.072475 -6.283449c3.8716507 -0.58035374 7.7969475 0.65644836 10.588566 3.336296l0 0c1.565361 -3.0588598 4.638977 -5.114024 8.130173 -5.4362116c3.491188 -0.32218742 6.9058685 1.1341991 9.032326 3.852357l0 0c2.8280563 -3.242385 7.3275604 -4.607563 11.551559 -3.504816c4.223999 1.1027479 7.4138184 4.475359 8.189209 8.658485l0 0c3.4648438 0.92085075 6.3509903 3.261776 7.9127426 6.4179554c1.56176 3.1561794 1.6459198 6.818001 0.23074341 10.03936l0 0c3.4118652 4.326645 4.209984 10.091843 2.0965195 15.144127c-2.113472 5.0522842 -6.820999 8.6326065 -12.365829 9.404858c-0.03908539 4.741749 -2.7080765 9.092724 -6.9782257 11.375858c-4.270157 2.283142 -9.47467 2.1419296 -13.607506 -0.36920166l0 0c-1.7603683 5.679062 -6.7152176 9.857666 -12.723862 10.730492c-6.0086517 0.87283325 -11.993935 -1.7165833 -15.3699875 -6.649521l0 0c-4.138336 2.4314575 -9.103992 3.1318817 -13.776821 1.9432755c-4.6728287 -1.1886139 -8.659212 -4.1661377 -11.059902 -8.260902l0 0c-4.228859 0.4821701 -8.317581 -1.6526108 -10.236948 -5.3448486c-1.9193678 -3.6922417 -1.2607918 -8.15596 1.6488762 -11.175823l0 0c-3.772252 -2.163288 -5.6970816 -6.455967 -4.770767 -10.639572c0.92631435 -4.183609 4.493868 -7.3101234 8.842321 -7.7491913z" fill-rule="evenodd"/><path stroke="#595959" stroke-width="1.0" stroke-linejoin="round" stroke-linecap="butt" d="m19.391611 54.140354l0 0c1.7801361 1.0208588 3.8366127 1.4839478 5.8933105 1.3270836m2.6938343 15.193954c0.88445663 -0.10084534 1.7513924 -0.3143921 2.5784473 -0.6351471m22.25704 6.952507c-0.6220703 -0.90893555 -1.1428986 -1.8802185 -1.5536118 -2.897293m29.648533 -1.1838455l0 0c0.32094574 -1.0353775 0.5288849 -2.1010056 0.6203613 -3.1791077m19.964592 -7.8271523c0.041610718 -5.0483246 -2.9012146 -9.67062 -7.564453 -11.881477m17.833664 -12.666969c-0.7551956 1.7190475 -1.908081 3.2439957 -3.3682785 4.455269m-4.774498 -20.913038l0 0c0.12866974 0.694191 0.18822479 1.3988171 0.17782593 2.104107m-19.918259 -7.2575655l0 0c-0.7054596 0.80881405 -1.2866669 1.7126532 -1.7255173 2.6833735m-15.437141 -1.0998707l0 0c-0.37594604 0.7346382 -0.6566849 1.5120125 -0.83573914 2.3142147m-18.825588 0.6329975l0 0c1.0976601 0.626379 2.1131477 1.3802948 3.0241547 2.245184m-26.533531 13.020376l0 0c0.11168671 0.79972076 0.28815842 1.5895844 0.52776337 2.3621902" fill-rule="evenodd"/><path fill="#000000" d="m41.73448 51.75981l-3.03125 -11.453125l1.546875 0l1.75 7.5q0.28125 1.1875 0.484375 2.34375q0.4375 -1.828125 0.515625 -2.109375l2.171875 -7.734375l1.828125 0l1.640625 5.796875q0.625 2.15625 0.890625 4.046875q0.21875 -1.078125 0.578125 -2.484375l1.796875 -7.359375l1.515625 0l-3.140625 11.453125l-1.453125 0l-2.421875 -8.734375q-0.296875 -1.09375 -0.359375 -1.34375q-0.171875 0.796875 -0.328125 1.34375l-2.4375 8.734375l-1.546875 0zm15.1015625 0l-3.03125 -11.453125l1.546875 0l1.75 7.5q0.28125 1.1875 0.484375 2.34375q0.4375 -1.828125 0.515625 -2.109375l2.171875 -7.734375l1.828125 0l1.640625 5.796875q0.625 2.15625 0.890625 4.046875q0.21875 -1.078125 0.578125 -2.484375l1.796875 -7.359375l1.515625 0l-3.140625 11.453125l-1.453125 0l-2.421875 -8.734375q-0.296875 -1.09375 -0.359375 -1.34375q-0.171875 0.796875 -0.328125 1.34375l-2.4375 8.734375l-1.546875 0zm15.1015625 0l-3.03125 -11.453125l1.546875 0l1.75 7.5q0.28125 1.1875 0.484375 2.34375q0.4375 -1.828125 0.515625 -2.109375l2.171875 -7.734375l1.828125 0l1.640625 5.796875q0.625 2.15625 0.890625 4.046875q0.21875 -1.078125 0.578125 -2.484375l1.796875 -7.359375l1.515625 0l-3.140625 11.453125l-1.453125 0l-2.421875 -8.734375q-0.296875 -1.09375 -0.359375 -1.34375q-0.171875 0.796875 -0.328125 1.34375l-2.4375 8.734375l-1.546875 0z" fill-rule="nonzero"/><path fill="#a4c2f4" d="m9.803022 170.61348l37.795273 0l0 36.881897l-37.795273 0z" fill-rule="evenodd"/><path stroke="#595959" stroke-width="1.0" stroke-linejoin="round" stroke-linecap="butt" d="m9.803022 170.61348l37.795273 0l0 36.881897l-37.795273 0z" fill-rule="evenodd"/><path fill="#000000" d="m24.079565 183.4613l4.234375 0q1.421875 0 2.171875 0.21875q1.015625 0.296875 1.7343731 1.0625q0.71875 0.75 1.09375 1.84375q0.375 1.09375 0.375 2.703125q0 1.421875 -0.359375 2.4375q-0.421875 1.25 -1.21875 2.03125q-0.6093731 0.578125 -1.6249981 0.90625q-0.765625 0.25 -2.046875 0.25l-4.359375 0l0 -11.453125zm2.3125 1.9375l0 7.578125l1.734375 0q0.96875 0 1.390625 -0.109375q0.5625 -0.140625 0.9375 -0.46875q0.375 -0.34375 0.609375 -1.109375q0.234375 -0.765625 0.234375 -2.09375q0 -1.328125 -0.234375 -2.03125q-0.234375 -0.71875 -0.65625 -1.109375q-0.421875 -0.40625 -1.078125 -0.546875q-0.484375 -0.109375 -1.890625 -0.109375l-1.046875 0z" fill-rule="nonzero"/><path fill="#a4c2f4" d="m53.32402 170.61348l37.795273 0l0 36.881897l-37.795273 0z" fill-rule="evenodd"/><path stroke="#595959" stroke-width="1.0" stroke-linejoin="round" stroke-linecap="butt" d="m53.32402 170.61348l37.795273 0l0 36.881897l-37.795273 0z" fill-rule="evenodd"/><path fill="#000000" d="m67.463844 191.18005l2.25 -0.21875q0.203125 1.140625 0.828125 1.671875q0.625 0.53125 1.671875 0.53125q1.125 0 1.6875 -0.46875q0.5625 -0.484375 0.5625 -1.109375q0 -0.40625 -0.234375 -0.6875q-0.234375 -0.296875 -0.828125 -0.5q-0.40625 -0.140625 -1.859375 -0.5q-1.859375 -0.46875 -2.609375 -1.140625q-1.046875 -0.9375 -1.046875 -2.296875q0 -0.875 0.484375 -1.640625q0.5 -0.765625 1.4375 -1.15625q0.9375 -0.40625 2.25 -0.40625q2.15625 0 3.25 0.953125q1.09375 0.9375 1.140625 2.515625l-2.3125 0.109375q-0.140625 -0.890625 -0.640625 -1.265625q-0.484375 -0.390625 -1.453125 -0.390625q-1.015625 0 -1.578125 0.40625q-0.375 0.265625 -0.375 0.71875q0 0.40625 0.34375 0.6875q0.4375 0.375 2.125 0.78125q1.6875 0.390625 2.5 0.8125q0.8125 0.421875 1.265625 1.171875q0.453125 0.734375 0.453125 1.8125q0 0.984375 -0.546875 1.84375q-0.546875 0.859375 -1.546875 1.28125q-1.0 0.421875 -2.484375 0.421875q-2.171875 0 -3.34375 -1.0q-1.15625 -1.015625 -1.390625 -2.9375z" fill-rule="nonzero"/><path fill="#eeeeee" d="m153.53662 107.88908l140.94489 0l0 107.77952l-140.94489 0z" fill-rule="evenodd"/><path stroke="#595959" stroke-width="1.0" stroke-linejoin="round" stroke-linecap="butt" d="m153.53662 107.88908l140.94489 0l0 107.77952l-140.94489 0z" fill-rule="evenodd"/><path fill="#000000" d="m199.74857 202.3086l-3.28125 -12.40625l1.671875 0l1.890625 8.140625q0.3125 1.265625 0.53125 2.53125q0.46875 -1.984375 0.546875 -2.296875l2.359375 -8.375l1.984375 0l1.78125 6.28125q0.671875 2.328125 0.96875 4.390625q0.234375 -1.171875 0.609375 -2.703125l1.953125 -7.96875l1.640625 0l-3.390625 12.40625l-1.59375 0l-2.609375 -9.453125q-0.328125 -1.1875 -0.390625 -1.453125q-0.1875 0.859375 -0.359375 1.453125l-2.640625 9.453125l-1.671875 0zm13.120087 -4.5q0 -2.484375 1.390625 -3.6875q1.15625 -1.0 2.8125 -1.0q1.859375 0 3.03125 1.21875q1.1875 1.203125 1.1875 3.34375q0 1.734375 -0.53125 2.734375q-0.515625 1.0 -1.515625 1.546875q-0.984375 0.546875 -2.171875 0.546875q-1.875 0 -3.046875 -1.203125q-1.15625 -1.21875 -1.15625 -3.5zm1.5625 0q0 1.734375 0.75 2.59375q0.75 0.859375 1.890625 0.859375q1.140625 0 1.890625 -0.859375q0.75 -0.875 0.75 -2.640625q0 -1.65625 -0.75 -2.515625q-0.75 -0.859375 -1.890625 -0.859375q-1.140625 0 -1.890625 0.859375q-0.75 0.84375 -0.75 2.5625zm8.62146 4.5l0 -8.984375l1.375 0l0 1.359375q0.515625 -0.953125 0.953125 -1.25q0.453125 -0.3125 0.984375 -0.3125q0.78125 0 1.5625 0.484375l-0.515625 1.421875q-0.5625 -0.328125 -1.125 -0.328125q-0.5 0 -0.890625 0.296875q-0.390625 0.296875 -0.5625 0.828125q-0.265625 0.8125 -0.265625 1.78125l0 4.703125l-1.515625 0zm5.801651 0l0 -12.40625l1.515625 0l0 7.078125l3.609375 -3.65625l1.96875 0l-3.4375 3.328125l3.78125 5.65625l-1.875 0l-2.96875 -4.59375l-1.078125 1.03125l0 3.5625l-1.515625 0zm14.8046875 -2.890625l1.5625 0.1875q-0.359375 1.390625 -1.375 2.15625q-1.0 0.75 -2.5625 0.75q-1.984375 0 -3.140625 -1.203125q-1.140625 -1.21875 -1.140625 -3.421875q0 -2.265625 1.15625 -3.515625q1.171875 -1.25 3.03125 -1.25q1.8125 0 2.953125 1.234375q1.140625 1.21875 1.140625 3.4375q0 0.140625 -0.015625 0.40625l-6.703125 0q0.09375 1.484375 0.84375 2.28125q0.75 0.78125 1.875 0.78125q0.84375 0 1.4375 -0.4375q0.59375 -0.4375 0.9375 -1.40625zm-5.0 -2.46875l5.015625 0q-0.109375 -1.125 -0.578125 -1.703125q-0.734375 -0.875 -1.890625 -0.875q-1.046875 0 -1.765625 0.703125q-0.703125 0.703125 -0.78125 1.875zm8.46521 5.359375l0 -8.984375l1.375 0l0 1.359375q0.515625 -0.953125 0.953125 -1.25q0.453125 -0.3125 0.984375 -0.3125q0.78125 0 1.5625 0.484375l-0.515625 1.421875q-0.5625 -0.328125 -1.125 -0.328125q-0.5 0 -0.890625 0.296875q-0.390625 0.296875 -0.5625 0.828125q-0.265625 0.8125 -0.265625 1.78125l0 4.703125l-1.515625 0z" fill-rule="nonzero"/><path fill="#eeeeee" d="m305.77283 107.88908l140.94489 0l0 107.77952l-140.94489 0z" fill-rule="evenodd"/><path stroke="#595959" stroke-width="1.0" stroke-linejoin="round" stroke-linecap="butt" d="m305.77283 107.88908l140.94489 0l0 107.77952l-140.94489 0z" fill-rule="evenodd"/><path fill="#000000" d="m351.98477 202.3086l-3.28125 -12.40625l1.671875 0l1.890625 8.140625q0.3125 1.265625 0.53125 2.53125q0.46875 -1.984375 0.546875 -2.296875l2.359375 -8.375l1.984375 0l1.78125 6.28125q0.671875 2.328125 0.96875 4.390625q0.234375 -1.171875 0.609375 -2.703125l1.953125 -7.96875l1.640625 0l-3.390625 12.40625l-1.59375 0l-2.609375 -9.453125q-0.328125 -1.1875 -0.390625 -1.453125q-0.1875 0.859375 -0.359375 1.453125l-2.640625 9.453125l-1.671875 0zm13.120087 -4.5q0 -2.484375 1.390625 -3.6875q1.15625 -1.0 2.8125 -1.0q1.859375 0 3.03125 1.21875q1.1875 1.203125 1.1875 3.34375q0 1.734375 -0.53125 2.734375q-0.515625 1.0 -1.515625 1.546875q-0.984375 0.546875 -2.171875 0.546875q-1.875 0 -3.046875 -1.203125q-1.15625 -1.21875 -1.15625 -3.5zm1.5625 0q0 1.734375 0.75 2.59375q0.75 0.859375 1.890625 0.859375q1.140625 0 1.890625 -0.859375q0.75 -0.875 0.75 -2.640625q0 -1.65625 -0.75 -2.515625q-0.75 -0.859375 -1.890625 -0.859375q-1.140625 0 -1.890625 0.859375q-0.75 0.84375 -0.75 2.5625zm8.62146 4.5l0 -8.984375l1.375 0l0 1.359375q0.515625 -0.953125 0.953125 -1.25q0.453125 -0.3125 0.984375 -0.3125q0.78125 0 1.5625 0.484375l-0.515625 1.421875q-0.5625 -0.328125 -1.125 -0.328125q-0.5 0 -0.890625 0.296875q-0.390625 0.296875 -0.5625 0.828125q-0.265625 0.8125 -0.265625 1.78125l0 4.703125l-1.515625 0zm5.8016663 0l0 -12.40625l1.515625 0l0 7.078125l3.609375 -3.65625l1.96875 0l-3.4375 3.328125l3.78125 5.65625l-1.875 0l-2.96875 -4.59375l-1.078125 1.03125l0 3.5625l-1.515625 0zm14.8046875 -2.890625l1.5625 0.1875q-0.359375 1.390625 -1.375 2.15625q-1.0 0.75 -2.5625 0.75q-1.984375 0 -3.140625 -1.203125q-1.140625 -1.21875 -1.140625 -3.421875q0 -2.265625 1.15625 -3.515625q1.171875 -1.25 3.03125 -1.25q1.8125 0 2.953125 1.234375q1.140625 1.21875 1.140625 3.4375q0 0.140625 -0.015625 0.40625l-6.703125 0q0.09375 1.484375 0.84375 2.28125q0.75 0.78125 1.875 0.78125q0.84375 0 1.4375 -0.4375q0.59375 -0.4375 0.9375 -1.40625zm-5.0 -2.46875l5.015625 0q-0.109375 -1.125 -0.578125 -1.703125q-0.734375 -0.875 -1.890625 -0.875q-1.046875 0 -1.765625 0.703125q-0.703125 0.703125 -0.78125 1.875zm8.46521 5.359375l0 -8.984375l1.375 0l0 1.359375q0.515625 -0.953125 0.953125 -1.25q0.453125 -0.3125 0.984375 -0.3125q0.78125 0 1.5625 0.484375l-0.515625 1.421875q-0.5625 -0.328125 -1.125 -0.328125q-0.5 0 -0.890625 0.296875q-0.390625 0.296875 -0.5625 0.828125q-0.265625 0.8125 -0.265625 1.78125l0 4.703125l-1.515625 0z" fill-rule="nonzero"/><path fill="#eeeeee" d="m159.69409 38.539993l0 0c0 -19.864857 28.808899 -35.968506 64.346466 -35.968506l0 0c35.537567 0 64.346466 16.10365 64.346466 35.968506l0 0c0 19.864857 -28.808899 35.968506 -64.346466 35.968506l0 0c-35.537567 0 -64.346466 -16.10365 -64.346466 -35.968506z" fill-rule="evenodd"/><path stroke="#595959" stroke-width="1.0" stroke-linejoin="round" stroke-linecap="butt" d="m159.69409 38.539993l0 0c0 -19.864857 28.808899 -35.968506 64.346466 -35.968506l0 0c35.537567 0 64.346466 16.10365 64.346466 35.968506l0 0c0 19.864857 -28.808899 35.968506 -64.346466 35.968506l0 0c-35.537567 0 -64.346466 -16.10365 -64.346466 -35.968506z" fill-rule="evenodd"/><path fill="#000000" d="m191.12666 44.679993l0 -12.40625l2.46875 0l2.9375 8.78125q0.40625 1.234375 0.59375 1.84375q0.21875 -0.6875 0.65625 -2.0l2.984375 -8.625l2.203125 0l0 12.40625l-1.578125 0l0 -10.375l-3.609375 10.375l-1.484375 0l-3.578125 -10.5625l0 10.5625l-1.59375 0zm20.153214 -1.109375q-0.84375 0.71875 -1.625 1.015625q-0.78125 0.296875 -1.671875 0.296875q-1.484375 0 -2.28125 -0.71875q-0.796875 -0.734375 -0.796875 -1.859375q0 -0.65625 0.296875 -1.203125q0.3125 -0.546875 0.796875 -0.875q0.484375 -0.328125 1.09375 -0.5q0.4375 -0.109375 1.34375 -0.21875q1.84375 -0.21875 2.71875 -0.53125q0.015625 -0.3125 0.015625 -0.390625q0 -0.9375 -0.4375 -1.3125q-0.578125 -0.515625 -1.734375 -0.515625q-1.078125 0 -1.59375 0.375q-0.5 0.375 -0.75 1.328125l-1.484375 -0.203125q0.203125 -0.953125 0.65625 -1.53125q0.46875 -0.59375 1.34375 -0.90625q0.890625 -0.328125 2.046875 -0.328125q1.15625 0 1.875 0.28125q0.71875 0.265625 1.046875 0.671875q0.34375 0.40625 0.484375 1.03125q0.078125 0.390625 0.078125 1.40625l0 2.03125q0 2.125 0.09375 2.6875q0.09375 0.5625 0.390625 1.078125l-1.59375 0q-0.234375 -0.46875 -0.3125 -1.109375zm-0.125 -3.40625q-0.828125 0.34375 -2.484375 0.578125q-0.9375 0.140625 -1.328125 0.3125q-0.390625 0.171875 -0.609375 0.5q-0.203125 0.3125 -0.203125 0.71875q0 0.609375 0.453125 1.015625q0.46875 0.40625 1.359375 0.40625q0.875 0 1.5625 -0.390625q0.6875 -0.390625 1.015625 -1.046875q0.234375 -0.515625 0.234375 -1.53125l0 -0.5625zm3.90271 4.515625l0 -8.984375l1.375 0l0 1.28125q0.984375 -1.484375 2.859375 -1.484375q0.8125 0 1.484375 0.296875q0.6875 0.28125 1.015625 0.765625q0.34375 0.46875 0.484375 1.125q0.078125 0.421875 0.078125 1.46875l0 5.53125l-1.515625 0l0 -5.46875q0 -0.921875 -0.1875 -1.375q-0.171875 -0.46875 -0.625 -0.75q-0.453125 -0.28125 -1.0625 -0.28125q-0.96875 0 -1.671875 0.625q-0.703125 0.609375 -0.703125 2.34375l0 4.90625l-1.53125 0zm15.49646 -1.109375q-0.84375 0.71875 -1.625 1.015625q-0.78125 0.296875 -1.671875 0.296875q-1.484375 0 -2.28125 -0.71875q-0.796875 -0.734375 -0.796875 -1.859375q0 -0.65625 0.296875 -1.203125q0.3125 -0.546875 0.796875 -0.875q0.484375 -0.328125 1.09375 -0.5q0.4375 -0.109375 1.34375 -0.21875q1.84375 -0.21875 2.71875 -0.53125q0.015625 -0.3125 0.015625 -0.390625q0 -0.9375 -0.4375 -1.3125q-0.578125 -0.515625 -1.734375 -0.515625q-1.078125 0 -1.59375 0.375q-0.5 0.375 -0.75 1.328125l-1.484375 -0.203125q0.203125 -0.953125 0.65625 -1.53125q0.46875 -0.59375 1.34375 -0.90625q0.890625 -0.328125 2.046875 -0.328125q1.15625 0 1.875 0.28125q0.71875 0.265625 1.046875 0.671875q0.34375 0.40625 0.484375 1.03125q0.078125 0.390625 0.078125 1.40625l0 2.03125q0 2.125 0.09375 2.6875q0.09375 0.5625 0.390625 1.078125l-1.59375 0q-0.234375 -0.46875 -0.3125 -1.109375zm-0.125 -3.40625q-0.828125 0.34375 -2.484375 0.578125q-0.9375 0.140625 -1.328125 0.3125q-0.390625 0.171875 -0.609375 0.5q-0.203125 0.3125 -0.203125 0.71875q0 0.609375 0.453125 1.015625q0.46875 0.40625 1.359375 0.40625q0.875 0 1.5625 -0.390625q0.6875 -0.390625 1.015625 -1.046875q0.234375 -0.515625 0.234375 -1.53125l0 -0.5625zm3.62146 5.265621l1.484375 0.21875q0.09375 0.6875 0.515625 1.0q0.5625 0.421875 1.546875 0.421875q1.0625 0 1.625 -0.421875q0.578125 -0.421875 0.78125 -1.1875q0.125 -0.4687462 0.109375 -1.9531212q-0.984375 1.171875 -2.484375 1.171875q-1.84375 0 -2.859375 -1.328125q-1.015625 -1.34375 -1.015625 -3.21875q0 -1.28125 0.453125 -2.359375q0.46875 -1.09375 1.34375 -1.6875q0.890625 -0.59375 2.09375 -0.59375q1.59375 0 2.625 1.28125l0 -1.078125l1.40625 0l0 7.765625q0 2.0937462 -0.4375 2.9687462q-0.421875 0.875 -1.359375 1.375q-0.921875 0.515625 -2.265625 0.515625q-1.609375 0 -2.609375 -0.71875q-0.984375 -0.71875 -0.953125 -2.171875zm1.265625 -5.406246q0 1.765625 0.703125 2.578125q0.703125 0.8125 1.75 0.8125q1.0625 0 1.765625 -0.796875q0.71875 -0.8125 0.71875 -2.546875q0 -1.640625 -0.734375 -2.46875q-0.734375 -0.84375 -1.765625 -0.84375q-1.015625 0 -1.734375 0.828125q-0.703125 0.8125 -0.703125 2.4375zm14.80896 1.765625l1.5625 0.1875q-0.359375 1.390625 -1.375 2.15625q-1.0 0.75 -2.5625 0.75q-1.984375 0 -3.140625 -1.203125q-1.140625 -1.21875 -1.140625 -3.421875q0 -2.265625 1.15625 -3.515625q1.171875 -1.25 3.03125 -1.25q1.8125 0 2.953125 1.234375q1.140625 1.21875 1.140625 3.4375q0 0.140625 -0.015625 0.40625l-6.703125 0q0.09375 1.484375 0.84375 2.28125q0.75 0.78125 1.875 0.78125q0.84375 0 1.4375 -0.4375q0.59375 -0.4375 0.9375 -1.40625zm-5.0 -2.46875l5.015625 0q-0.109375 -1.125 -0.578125 -1.703125q-0.734375 -0.875 -1.890625 -0.875q-1.046875 0 -1.765625 0.703125q-0.703125 0.703125 -0.78125 1.875zm8.46521 5.359375l0 -8.984375l1.375 0l0 1.359375q0.515625 -0.953125 0.953125 -1.25q0.453125 -0.3125 0.984375 -0.3125q0.78125 0 1.5625 0.484375l-0.515625 1.421875q-0.5625 -0.328125 -1.125 -0.328125q-0.5 0 -0.890625 0.296875q-0.390625 0.296875 -0.5625 0.828125q-0.265625 0.8125 -0.265625 1.78125l0 4.703125l-1.515625 0z" fill-rule="nonzero"/><path fill="#000000" fill-opacity="0.0" d="m178.54074 63.973564l-105.32284 43.90551" fill-rule="evenodd"/><path stroke="#595959" stroke-width="1.0" stroke-linejoin="round" stroke-linecap="butt" d="m178.54074 63.973564l-99.78477 41.596878" fill-rule="evenodd"/><path fill="#595959" stroke="#595959" stroke-width="1.0" stroke-linecap="butt" d="m78.12043 104.045876l-3.5531769 3.2707062l4.8242645 -0.22156525z" fill-rule="evenodd"/><path fill="#000000" fill-opacity="0.0" d="m64.72597 83.45596l-36.031494 87.1496" fill-rule="evenodd"/><path stroke="#595959" stroke-width="1.0" stroke-linejoin="round" stroke-linecap="butt" d="m64.72597 83.45596l-33.739037 81.60483" fill-rule="evenodd"/><path fill="#595959" stroke="#595959" stroke-width="1.0" stroke-linecap="butt" d="m29.460514 164.4297l-0.20748329 4.824875l3.2603168 -3.5626984z" fill-rule="evenodd"/><path fill="#000000" fill-opacity="0.0" d="m376.2452 86.34289l-285.13385 102.70866" fill-rule="evenodd"/><path stroke="#595959" stroke-width="1.0" stroke-linejoin="round" stroke-linecap="butt" d="m376.2452 86.34289l-279.4889 100.675285" fill-rule="evenodd"/><path fill="#595959" stroke="#595959" stroke-width="1.0" stroke-linecap="butt" d="m96.19654 185.46419l-3.7097855 3.0919342l4.829315 0.016036987z" fill-rule="evenodd"/></g></svg>