<svg version="1.1" viewBox="0.0 0.0 800.0 180.0" fill="none" stroke="none" stroke-linecap="square" stroke-miterlimit="10" xmlns:xlink="http://www.w3.org/1999/xlink" xmlns="http://www.w3.org/2000/svg"><clipPath id="g1f5f036ee32_0_8.0"><path d="m0 0l960.0 0l0 540.0l-960.0 0l0 -540.0z" clip-rule="nonzero"/></clipPath><g clip-path="url(#g1f5f036ee32_0_8.0)"><path fill="#ffffff" d="m0 0l960.0 0l0 540.0l-960.0 0z" fill-rule="evenodd"/><path fill="#a4c2f4" d="m107.27821 33.194225l37.795273 0l0 36.881893l-37.795273 0z" fill-rule="evenodd"/><path stroke="#595959" stroke-width="1.0" stroke-linejoin="round" stroke-linecap="butt" d="m107.27821 33.194225l37.795273 0l0 36.881893l-37.795273 0z" fill-rule="evenodd"/><path fill="#000000" d="m121.554756 46.042046l4.234375 0q1.421875 0 2.171875 0.21875q1.0156326 0.296875 1.7343826 1.0625q0.71875 0.75 1.09375 1.84375q0.375 1.09375 0.375 2.703125q0 1.421875 -0.359375 2.4375q-0.421875 1.25 -1.21875 2.03125q-0.609375 0.578125 -1.6250076 0.90625q-0.765625 0.25 -2.046875 0.25l-4.359375 0l0 -11.453125zm2.3125 1.9375l0 7.578125l1.734375 0q0.96875 0 1.390625 -0.109375q0.5625 -0.140625 0.9375 -0.46875q0.37500763 -0.34375 0.6093826 -1.109375q0.234375 -0.765625 0.234375 -2.09375q0 -1.328125 -0.234375 -2.03125q-0.234375 -0.71875 -0.6562576 -1.109375q-0.421875 -0.40625 -1.078125 -0.546875q-0.484375 -0.109375 -1.890625 -0.109375l-1.046875 0z" fill-rule="nonzero"/><path fill="#6aa84f" d="m175.22966 75.63517l0 0c0 -10.184654 8.460754 -18.440945 18.897644 -18.440945l0 0c5.011963 0 9.818649 1.9428787 13.36264 5.40123c3.543991 3.4583473 5.5349884 8.148876 5.5349884 13.039715l0 0c0 10.184654 -8.460754 18.440948 -18.897629 18.440948l0 0c-10.43689 0 -18.897644 -8.256294 -18.897644 -18.440948z" fill-rule="evenodd"/><path stroke="#595959" stroke-width="1.0" stroke-linejoin="round" stroke-linecap="butt" d="m175.22966 75.63517l0 0c0 -10.184654 8.460754 -18.440945 18.897644 -18.440945l0 0c5.011963 0 9.818649 1.9428787 13.36264 5.40123c3.543991 3.4583473 5.5349884 8.148876 5.5349884 13.039715l0 0c0 10.184654 -8.460754 18.440948 -18.897629 18.440948l0 0c-10.43689 0 -18.897644 -8.256294 -18.897644 -18.440948z" fill-rule="evenodd"/><path fill="#000000" d="m196.06152 81.49517l-2.1875 0l0 -8.28125q-1.203125 1.125 -2.84375 1.671875l0 -2.0q0.859375 -0.28125 1.859375 -1.0625q1.015625 -0.78125 1.390625 -1.828125l1.78125 0l0 11.5z" fill-rule="nonzero"/><path fill="#000000" fill-opacity="0.0" d="m145.07349 51.63517l35.685043 10.960632" fill-rule="evenodd"/><path stroke="#595959" stroke-width="1.0" stroke-linejoin="round" stroke-linecap="butt" d="m145.07349 51.63517l29.949493 9.198963" fill-rule="evenodd"/><path fill="#595959" stroke="#595959" stroke-width="1.0" stroke-linecap="butt" d="m174.53801 62.413063l4.823059 -0.2464943l-3.853119 -2.9113693z" fill-rule="evenodd"/><path fill="#6aa84f" d="m348.3294 72.91863l0 0c0 -10.18465 8.460754 -18.44094 18.897614 -18.44094l0 0c5.0119934 0 9.818665 1.9428787 13.362671 5.401226c3.5439758 3.4583473 5.534973 8.148876 5.534973 13.039715l0 0c0 10.184654 -8.460754 18.440948 -18.897644 18.440948l0 0c-10.436859 0 -18.897614 -8.256294 -18.897614 -18.440948z" fill-rule="evenodd"/><path stroke="#595959" stroke-width="1.0" stroke-linejoin="round" stroke-linecap="butt" d="m348.3294 72.91863l0 0c0 -10.18465 8.460754 -18.44094 18.897614 -18.44094l0 0c5.0119934 0 9.818665 1.9428787 13.362671 5.401226c3.5439758 3.4583473 5.534973 8.148876 5.534973 13.039715l0 0c0 10.184654 -8.460754 18.440948 -18.897644 18.440948l0 0c-10.436859 0 -18.897614 -8.256294 -18.897614 -18.440948z" fill-rule="evenodd"/><path fill="#000000" d="m363.47375 75.73176l2.125 -0.25q0.09375 0.8125 0.53125 1.25q0.453125 0.421875 1.09375 0.421875q0.671875 0 1.140625 -0.515625q0.46875 -0.515625 0.46875 -1.390625q0 -0.828125 -0.453125 -1.3125q-0.4375 -0.484375 -1.078125 -0.484375q-0.421875 0 -1.015625 0.15625l0.25 -1.78125q0.890625 0.015625 1.359375 -0.390625q0.46875 -0.40625 0.46875 -1.09375q0 -0.578125 -0.34375 -0.921875q-0.34375 -0.34375 -0.921875 -0.34375q-0.5625 0 -0.96875 0.390625q-0.390625 0.390625 -0.46875 1.140625l-2.03125 -0.34375q0.21875 -1.03125 0.640625 -1.65625q0.421875 -0.625 1.1875 -0.96875q0.765625 -0.359375 1.703125 -0.359375q1.625 0 2.59375 1.03125q0.8125 0.84375 0.8125 1.90625q0 1.5 -1.65625 2.40625q0.984375 0.203125 1.578125 0.9375q0.59375 0.734375 0.59375 1.78125q0 1.5 -1.109375 2.578125q-1.09375 1.0625 -2.734375 1.0625q-1.5625 0 -2.59375 -0.890625q-1.015625 -0.90625 -1.171875 -2.359375z" fill-rule="nonzero"/><path fill="#6aa84f" d="m316.3294 118.25722l0 0c0 -10.184654 8.460754 -18.44094 18.897614 -18.44094l0 0c5.0119934 0 9.818665 1.9428787 13.362671 5.401222c3.5439758 3.4583511 5.534973 8.14888 5.534973 13.039719l0 0c0 10.184647 -8.460754 18.440948 -18.897644 18.440948l0 0c-10.436859 0 -18.897614 -8.256302 -18.897614 -18.440948z" fill-rule="evenodd"/><path stroke="#595959" stroke-width="1.0" stroke-linejoin="round" stroke-linecap="butt" d="m316.3294 118.25722l0 0c0 -10.184654 8.460754 -18.44094 18.897614 -18.44094l0 0c5.0119934 0 9.818665 1.9428787 13.362671 5.401222c3.5439758 3.4583511 5.534973 8.14888 5.534973 13.039719l0 0c0 10.184647 -8.460754 18.440948 -18.897644 18.440948l0 0c-10.436859 0 -18.897614 -8.256302 -18.897614 -18.440948z" fill-rule="evenodd"/><path fill="#000000" d="m335.84875 124.11722l0 -2.3125l-4.6875 0l0 -1.921875l4.96875 -7.265625l1.84375 0l0 7.265625l1.421875 0l0 1.921875l-1.421875 0l0 2.3125l-2.125 0zm0 -4.234375l0 -3.921875l-2.625 3.921875l2.625 0z" fill-rule="nonzero"/><path fill="#000000" fill-opacity="0.0" d="m213.02493 75.63517l30.141739 0" fill-rule="evenodd"/><path stroke="#595959" stroke-width="1.0" stroke-linejoin="round" stroke-linecap="butt" d="m213.02493 75.63517l24.141739 0" fill-rule="evenodd"/><path fill="#595959" stroke="#595959" stroke-width="1.0" stroke-linecap="butt" d="m237.16667 77.2869l4.538086 -1.6517334l-4.538086 -1.6517334z" fill-rule="evenodd"/><path fill="#a4c2f4" d="m243.1798 57.194225l37.795273 0l0 36.881893l-37.795273 0z" fill-rule="evenodd"/><path stroke="#595959" stroke-width="1.0" stroke-linejoin="round" stroke-linecap="butt" d="m243.1798 57.194225l37.795273 0l0 36.881893l-37.795273 0z" fill-rule="evenodd"/><path fill="#000000" d="m260.9407 81.49517l0 -9.515625l-3.40625 0l0 -1.9375l9.109375 0l0 1.9375l-3.390625 0l0 9.515625l-2.3125 0z" fill-rule="nonzero"/><path fill="#a4c2f4" d="m107.27821 81.19423l37.795273 0l0 36.88189l-37.795273 0z" fill-rule="evenodd"/><path stroke="#595959" stroke-width="1.0" stroke-linejoin="round" stroke-linecap="butt" d="m107.27821 81.19423l37.795273 0l0 36.88189l-37.795273 0z" fill-rule="evenodd"/><path fill="#000000" d="m121.41804 101.760796l2.25 -0.21875q0.203125 1.140625 0.828125 1.671875q0.625 0.53125 1.671875 0.53125q1.125 0 1.6875 -0.46875q0.5625076 -0.484375 0.5625076 -1.109375q0 -0.40625 -0.234375 -0.6875q-0.23438263 -0.296875 -0.8281326 -0.5q-0.40625 -0.140625 -1.859375 -0.5q-1.859375 -0.46875 -2.609375 -1.140625q-1.046875 -0.9375 -1.046875 -2.296875q0 -0.875 0.484375 -1.640625q0.5 -0.765625 1.4375 -1.15625q0.9375 -0.40625 2.25 -0.40625q2.1562576 0 3.2500076 0.953125q1.09375 0.9375 1.140625 2.515625l-2.3125 0.109375q-0.14063263 -0.890625 -0.6406326 -1.265625q-0.484375 -0.390625 -1.453125 -0.390625q-1.015625 0 -1.578125 0.40625q-0.375 0.265625 -0.375 0.71875q0 0.40625 0.34375 0.6875q0.4375 0.375 2.125 0.78125q1.6875076 0.390625 2.5000076 0.8125q0.8125 0.421875 1.265625 1.171875q0.453125 0.734375 0.453125 1.8125q0 0.984375 -0.546875 1.84375q-0.546875 0.859375 -1.546875 1.28125q-1.0000076 0.421875 -2.4843826 0.421875q-2.171875 0 -3.34375 -1.0q-1.15625 -1.015625 -1.390625 -2.9375z" fill-rule="nonzero"/><path fill="#000000" fill-opacity="0.0" d="m145.07349 99.63517l35.685043 -10.960632" fill-rule="evenodd"/><path stroke="#595959" stroke-width="1.0" stroke-linejoin="round" stroke-linecap="butt" d="m145.07349 99.63517l29.949493 -9.198959" fill-rule="evenodd"/><path fill="#595959" stroke="#595959" stroke-width="1.0" stroke-linecap="butt" d="m175.50795 92.015144l3.853119 -2.9113693l-4.823059 -0.24649811z" fill-rule="evenodd"/><path fill="#eeeeee" d="m19.262466 90.89249l0 0c0 -4.3269577 8.460762 -7.834648 18.89764 -7.834648c10.436874 0 18.897636 3.5076904 18.897636 7.834648l0 31.338585c0 4.3269577 -8.460762 7.834648 -18.897636 7.834648c-10.436878 0 -18.89764 -3.5076904 -18.89764 -7.834648z" fill-rule="evenodd"/><path fill="#000000" fill-opacity="0.0" d="m57.057743 90.89249l0 0c0 4.3269577 -8.460762 7.834648 -18.897636 7.834648c-10.436878 0 -18.89764 -3.5076904 -18.89764 -7.834648" fill-rule="evenodd"/><path fill="#000000" fill-opacity="0.0" d="m19.262466 90.89249l0 0c0 -4.3269577 8.460762 -7.834648 18.89764 -7.834648c10.436874 0 18.897636 3.5076904 18.897636 7.834648l0 31.338585c0 4.3269577 -8.460762 7.834648 -18.897636 7.834648c-10.436878 0 -18.89764 -3.5076904 -18.89764 -7.834648z" fill-rule="evenodd"/><path stroke="#595959" stroke-width="1.0" stroke-linejoin="round" stroke-linecap="butt" d="m57.057743 90.89249l0 0c0 4.3269577 -8.460762 7.834648 -18.897636 7.834648c-10.436878 0 -18.89764 -3.5076904 -18.89764 -7.834648" fill-rule="evenodd"/><path stroke="#595959" stroke-width="1.0" stroke-linejoin="round" stroke-linecap="butt" d="m19.262466 90.89249l0 0c0 -4.3269577 8.460762 -7.834648 18.89764 -7.834648c10.436874 0 18.897636 3.5076904 18.897636 7.834648l0 31.338585c0 4.3269577 -8.460762 7.834648 -18.897636 7.834648c-10.436878 0 -18.89764 -3.5076904 -18.89764 -7.834648z" fill-rule="evenodd"/><path fill="#000000" d="m29.356216 115.2791l0 -9.546875l6.4375 0l0 1.125l-5.171875 0l0 2.96875l4.46875 0l0 1.125l-4.46875 0l0 4.328125l-1.265625 0zm7.6413574 -3.0625l1.203125 -0.109375q0.078125 0.71875 0.390625 1.1875q0.3125 0.453125 0.953125 0.734375q0.65625 0.28125 1.46875 0.28125q0.71875 0 1.265625 -0.21875q0.5625 -0.21875 0.828125 -0.578125q0.265625 -0.375 0.265625 -0.828125q0 -0.453125 -0.265625 -0.78125q-0.25 -0.328125 -0.84375 -0.5625q-0.390625 -0.15625 -1.703125 -0.46875q-1.3125 -0.3125 -1.84375 -0.59375q-0.671875 -0.359375 -1.015625 -0.890625q-0.328125 -0.53125 -0.328125 -1.1875q0 -0.71875 0.40625 -1.34375q0.40625 -0.625 1.1875 -0.953125q0.796875 -0.328125 1.765625 -0.328125q1.046875 0 1.859375 0.34375q0.8125 0.34375 1.25 1.015625q0.4375 0.65625 0.46875 1.484375l-1.203125 0.09375q-0.109375 -0.90625 -0.671875 -1.359375q-0.5625 -0.46875 -1.65625 -0.46875q-1.140625 0 -1.671875 0.421875q-0.515625 0.421875 -0.515625 1.015625q0 0.515625 0.359375 0.84375q0.375 0.328125 1.90625 0.6875q1.546875 0.34375 2.109375 0.59375q0.84375 0.390625 1.234375 0.984375q0.390625 0.578125 0.390625 1.359375q0 0.75 -0.4375 1.4375q-0.421875 0.671875 -1.25 1.046875q-0.8125 0.359375 -1.828125 0.359375q-1.296875 0 -2.171875 -0.375q-0.875 -0.375 -1.375 -1.125q-0.5 -0.765625 -0.53125 -1.71875z" fill-rule="nonzero"/><path fill="#000000" fill-opacity="0.0" d="m57.057743 106.561775l50.236217 -6.9291306" fill-rule="evenodd"/><path stroke="#595959" stroke-width="1.0" stroke-linejoin="round" stroke-linecap="butt" d="m57.057743 106.56178l44.2925 -6.109314" fill-rule="evenodd"/><path fill="#595959" stroke="#595959" stroke-width="1.0" stroke-linecap="butt" d="m101.57593 102.088715l4.269844 -2.2563171l-4.721222 -1.0161667z" fill-rule="evenodd"/><path fill="#eeeeee" d="m15.752804 34.107002l0 0c-0.40033054 -3.4426556 0.9140339 -6.8506775 3.3853607 -8.777914c2.471325 -1.9272366 5.666195 -2.0356941 8.228909 -0.27934837l0 0c0.90779114 -2.0017033 2.569315 -3.3837414 4.481991 -3.7280731c1.9126778 -0.34433365 3.8518562 0.3894806 5.2309723 1.9794788l0 0c0.77331924 -1.8148727 2.2917519 -3.034235 4.016472 -3.2253933c1.72472 -0.1911602 3.411644 0.6729374 4.462158 2.2856655l0 0c1.3971176 -1.9237595 3.6199684 -2.7337418 5.706711 -2.079464c2.0867424 0.6542778 3.6625786 2.655304 4.045635 5.1372223l0 0c1.7117081 0.5463562 3.1375237 1.9352646 3.9090652 3.8078785c0.7715378 1.8726139 0.81311417 4.045231 0.11398697 5.95652l0 0c1.6855316 2.5670662 2.0798225 5.9876556 1.0357246 8.98526c-1.0440979 2.9976044 -3.3697128 5.121868 -6.1089745 5.580055c-0.019306183 2.8133583 -1.3378448 5.394863 -3.4473877 6.749489c-2.1095467 1.3546219 -4.680687 1.2708397 -6.722393 -0.21905899l0 0c-0.8696556 3.369484 -3.3174553 5.8487167 -6.2858505 6.366581c-2.968399 0.5178642 -5.925253 -1.0184784 -7.593094 -3.9452744l0 0c-2.0444221 1.442627 -4.4975605 1.8582039 -6.806034 1.1529808c-2.3084755 -0.7052231 -4.27783 -2.471836 -5.4638214 -4.901329l0 0c-2.0891438 0.2860794 -4.1090574 -0.98052216 -5.0572653 -3.1711884c-0.9482069 -2.1906662 -0.6228571 -4.8390656 0.81457996 -6.6307983l0 0c-1.8635712 -1.2835159 -2.814477 -3.830433 -2.3568583 -6.3126373c0.4576187 -2.4822044 2.2200642 -4.3372154 4.36829 -4.597721z" fill-rule="evenodd"/><path fill="#000000" fill-opacity="0.0" d="m13.700076 45.150043l0 0c0.8794241 0.6056938 1.8953657 0.8804512 2.911418 0.7873802m1.3308105 9.014828c0.43693924 -0.059833527 0.86522293 -0.18653488 1.2738056 -0.3768425m10.99544 4.1250343c-0.30731583 -0.53928757 -0.56461525 -1.1155663 -0.7675152 -1.7190094m14.646992 -0.7023964l0 0c0.15855026 -0.6143074 0.26128006 -1.246563 0.30646896 -1.886219m9.862923 -4.6439743c0.020557404 -2.9952545 -1.4332619 -5.7377434 -3.7369957 -7.0494804m8.8102 -7.515522c-0.3730812 1.0199394 -0.9426346 1.924717 -1.6639977 2.6433868m-2.3587036 -12.408052l0 0c0.063568115 0.41187477 0.09298706 0.8299408 0.08784866 1.2484016m-9.840031 -4.306034l0 0c-0.34851456 0.4798832 -0.6356392 1.0161457 -0.8524437 1.5920906m-7.6262665 -0.65257263l0 0c-0.18572617 0.43587303 -0.3244171 0.89710236 -0.4128723 1.3730621m-9.300232 0.3755684l0 0c0.54226685 0.37164116 1.0439396 0.81895065 1.4939938 1.3321037m-13.108114 7.7252064l0 0c0.05517578 0.4744873 0.14235687 0.94312286 0.26072693 1.4015274" fill-rule="evenodd"/><path stroke="#595959" stroke-width="1.0" stroke-linejoin="round" stroke-linecap="butt" d="m15.752804 34.107002l0 0c-0.40033054 -3.4426556 0.9140339 -6.8506775 3.3853607 -8.777914c2.471325 -1.9272366 5.666195 -2.0356941 8.228909 -0.27934837l0 0c0.90779114 -2.0017033 2.569315 -3.3837414 4.481991 -3.7280731c1.9126778 -0.34433365 3.8518562 0.3894806 5.2309723 1.9794788l0 0c0.77331924 -1.8148727 2.2917519 -3.034235 4.016472 -3.2253933c1.72472 -0.1911602 3.411644 0.6729374 4.462158 2.2856655l0 0c1.3971176 -1.9237595 3.6199684 -2.7337418 5.706711 -2.079464c2.0867424 0.6542778 3.6625786 2.655304 4.045635 5.1372223l0 0c1.7117081 0.5463562 3.1375237 1.9352646 3.9090652 3.8078785c0.7715378 1.8726139 0.81311417 4.045231 0.11398697 5.95652l0 0c1.6855316 2.5670662 2.0798225 5.9876556 1.0357246 8.98526c-1.0440979 2.9976044 -3.3697128 5.121868 -6.1089745 5.580055c-0.019306183 2.8133583 -1.3378448 5.394863 -3.4473877 6.749489c-2.1095467 1.3546219 -4.680687 1.2708397 -6.722393 -0.21905899l0 0c-0.8696556 3.369484 -3.3174553 5.8487167 -6.2858505 6.366581c-2.968399 0.5178642 -5.925253 -1.0184784 -7.593094 -3.9452744l0 0c-2.0444221 1.442627 -4.4975605 1.8582039 -6.806034 1.1529808c-2.3084755 -0.7052231 -4.27783 -2.471836 -5.4638214 -4.901329l0 0c-2.0891438 0.2860794 -4.1090574 -0.98052216 -5.0572653 -3.1711884c-0.9482069 -2.1906662 -0.6228571 -4.8390656 0.81457996 -6.6307983l0 0c-1.8635712 -1.2835159 -2.814477 -3.830433 -2.3568583 -6.3126373c0.4576187 -2.4822044 2.2200642 -4.3372154 4.36829 -4.597721z" fill-rule="evenodd"/><path stroke="#595959" stroke-width="1.0" stroke-linejoin="round" stroke-linecap="butt" d="m13.700076 45.150043l0 0c0.8794241 0.6056938 1.8953657 0.8804512 2.911418 0.7873802m1.3308105 9.014828c0.43693924 -0.059833527 0.86522293 -0.18653488 1.2738056 -0.3768425m10.99544 4.1250343c-0.30731583 -0.53928757 -0.56461525 -1.1155663 -0.7675152 -1.7190094m14.646992 -0.7023964l0 0c0.15855026 -0.6143074 0.26128006 -1.246563 0.30646896 -1.886219m9.862923 -4.6439743c0.020557404 -2.9952545 -1.4332619 -5.7377434 -3.7369957 -7.0494804m8.8102 -7.515522c-0.3730812 1.0199394 -0.9426346 1.924717 -1.6639977 2.6433868m-2.3587036 -12.408052l0 0c0.063568115 0.41187477 0.09298706 0.8299408 0.08784866 1.2484016m-9.840031 -4.306034l0 0c-0.34851456 0.4798832 -0.6356392 1.0161457 -0.8524437 1.5920906m-7.6262665 -0.65257263l0 0c-0.18572617 0.43587303 -0.3244171 0.89710236 -0.4128723 1.3730621m-9.300232 0.3755684l0 0c0.54226685 0.37164116 1.0439396 0.81895065 1.4939938 1.3321037m-13.108114 7.7252064l0 0c0.05517578 0.4744873 0.14235687 0.94312286 0.26072693 1.4015274" fill-rule="evenodd"/><path fill="#000000" d="m31.089586 44.780796l-2.28125 -8.59375l1.171875 0l1.3125 5.640625q0.203125 0.875 0.359375 1.75q0.328125 -1.375 0.3906269 -1.59375l1.625 -5.796875l1.375 0l1.234375 4.34375q0.453125 1.625 0.671875 3.046875q0.15625 -0.8125 0.421875 -1.875l1.34375 -5.515625l1.140625 0l-2.34375 8.59375l-1.109375 0l-1.796875 -6.546875q-0.234375 -0.8125 -0.28125 -1.0q-0.125 0.578125 -0.25 1.0l-1.8125 6.546875l-1.1718769 0z" fill-rule="nonzero"/><path fill="#000000" fill-opacity="0.0" d="m280.97507 75.63517l40.881897 29.574806" fill-rule="evenodd"/><path stroke="#595959" stroke-width="1.0" stroke-linejoin="round" stroke-linecap="butt" d="m280.97507 75.63517l36.0206 26.05803" fill-rule="evenodd"/><path fill="#595959" stroke="#595959" stroke-width="1.0" stroke-linecap="butt" d="m316.02753 103.03146l4.6449585 1.3216476l-2.7087097 -3.998169z" fill-rule="evenodd"/><path fill="#a4c2f4" d="m439.23227 54.8084l37.795288 0l0 36.881893l-37.795288 0z" fill-rule="evenodd"/><path stroke="#595959" stroke-width="1.0" stroke-linejoin="round" stroke-linecap="butt" d="m439.23227 54.8084l37.795288 0l0 36.881893l-37.795288 0z" fill-rule="evenodd"/><path fill="#000000" d="m456.96585 79.109344l0 -4.828125l-4.203125 -6.625l2.71875 0l2.703125 4.53125l2.640625 -4.53125l2.65625 0l-4.203125 6.640625l0 4.8125l-2.3125 0z" fill-rule="nonzero"/><path fill="#a4c2f4" d="m439.23227 99.71391l37.795288 0l0 36.88188l-37.795288 0z" fill-rule="evenodd"/><path stroke="#595959" stroke-width="1.0" stroke-linejoin="round" stroke-linecap="butt" d="m439.23227 99.71391l37.795288 0l0 36.88188l-37.795288 0z" fill-rule="evenodd"/><path fill="#000000" d="m453.41507 124.014854l0 -2.09375l6.015625 -7.421875l-5.328125 0l0 -1.9375l8.375 0l0 1.796875l-6.265625 7.71875l6.515625 0l0 1.9375l-9.3125 0z" fill-rule="nonzero"/><path fill="#000000" fill-opacity="0.0" d="m386.12466 72.91863l53.102356 0.34645844" fill-rule="evenodd"/><path stroke="#595959" stroke-width="1.0" stroke-linejoin="round" stroke-linecap="butt" d="m386.12466 72.91863l47.102478 0.307312" fill-rule="evenodd"/><path fill="#595959" stroke="#595959" stroke-width="1.0" stroke-linecap="butt" d="m433.2164 74.87765l4.548767 -1.6220932l-4.5272217 -1.6813049z" fill-rule="evenodd"/><path fill="#000000" fill-opacity="0.0" d="m354.12466 118.25722l85.102356 -0.09449005" fill-rule="evenodd"/><path stroke="#595959" stroke-width="1.0" stroke-linejoin="round" stroke-linecap="butt" d="m354.12466 118.25722l79.102356 -0.08782196" fill-rule="evenodd"/><path fill="#595959" stroke="#595959" stroke-width="1.0" stroke-linecap="butt" d="m433.22888 119.82112l4.536255 -1.6567688l-4.5399475 -1.6466904z" fill-rule="evenodd"/><path fill="#000000" fill-opacity="0.0" d="m60.880642 41.24971l46.393696 10.3937" fill-rule="evenodd"/><path stroke="#595959" stroke-width="1.0" stroke-linejoin="round" stroke-linecap="butt" d="m60.88064 41.24971l40.53884 9.082024" fill-rule="evenodd"/><path fill="#595959" stroke="#595959" stroke-width="1.0" stroke-linecap="butt" d="m101.05838 51.943512l4.789421 -0.61968994l-4.067238 -2.6038704z" fill-rule="evenodd"/><path fill="#eeeeee" d="m655.895 57.249443l0 0c0 -4.326954 8.460754 -7.8346443 18.897644 -7.8346443c10.43689 0 18.897644 3.5076904 18.897644 7.8346443l0 31.338585c0 4.32695 -8.460754 7.8346405 -18.897644 7.8346405c-10.43689 0 -18.897644 -3.5076904 -18.897644 -7.8346405z" fill-rule="evenodd"/><path fill="#000000" fill-opacity="0.0" d="m693.6903 57.249443l0 0c0 4.326954 -8.460754 7.834648 -18.897644 7.834648c-10.43689 0 -18.897644 -3.5076942 -18.897644 -7.834648" fill-rule="evenodd"/><path fill="#000000" fill-opacity="0.0" d="m655.895 57.249443l0 0c0 -4.326954 8.460754 -7.8346443 18.897644 -7.8346443c10.43689 0 18.897644 3.5076904 18.897644 7.8346443l0 31.338585c0 4.32695 -8.460754 7.8346405 -18.897644 7.8346405c-10.43689 0 -18.897644 -3.5076904 -18.897644 -7.8346405z" fill-rule="evenodd"/><path stroke="#595959" stroke-width="1.0" stroke-linejoin="round" stroke-linecap="butt" d="m693.6903 57.249443l0 0c0 4.326954 -8.460754 7.834648 -18.897644 7.834648c-10.43689 0 -18.897644 -3.5076942 -18.897644 -7.834648" fill-rule="evenodd"/><path stroke="#595959" stroke-width="1.0" stroke-linejoin="round" stroke-linecap="butt" d="m655.895 57.249443l0 0c0 -4.326954 8.460754 -7.8346443 18.897644 -7.8346443c10.43689 0 18.897644 3.5076904 18.897644 7.8346443l0 31.338585c0 4.32695 -8.460754 7.8346405 -18.897644 7.8346405c-10.43689 0 -18.897644 -3.5076904 -18.897644 -7.8346405z" fill-rule="evenodd"/><path fill="#000000" d="m665.9888 81.636055l0 -9.546875l6.4375 0l0 1.125l-5.171875 0l0 2.96875l4.46875 0l0 1.125l-4.46875 0l0 4.328125l-1.265625 0zm7.6413574 -3.0625l1.203125 -0.109375q0.078125 0.71875 0.390625 1.1875q0.3125 0.453125 0.953125 0.734375q0.65625 0.28125 1.46875 0.28125q0.71875 0 1.265625 -0.21875q0.5625 -0.21875 0.828125 -0.578125q0.265625 -0.375 0.265625 -0.828125q0 -0.453125 -0.265625 -0.78125q-0.25 -0.328125 -0.84375 -0.5625q-0.390625 -0.15625 -1.703125 -0.46875q-1.3125 -0.3125 -1.84375 -0.59375q-0.671875 -0.359375 -1.015625 -0.890625q-0.328125 -0.53125 -0.328125 -1.1875q0 -0.71875 0.40625 -1.34375q0.40625 -0.625 1.1875 -0.953125q0.796875 -0.328125 1.765625 -0.328125q1.046875 0 1.859375 0.34375q0.8125 0.34375 1.25 1.015625q0.4375 0.65625 0.46875 1.484375l-1.203125 0.09375q-0.109375 -0.90625 -0.671875 -1.359375q-0.5625 -0.46875 -1.65625 -0.46875q-1.140625 0 -1.671875 0.421875q-0.515625 0.421875 -0.515625 1.015625q0 0.515625 0.359375 0.84375q0.375 0.328125 1.90625 0.6875q1.546875 0.34375 2.109375 0.59375q0.84375 0.390625 1.234375 0.984375q0.390625 0.578125 0.390625 1.359375q0 0.75 -0.4375 1.4375q-0.421875 0.671875 -1.25 1.046875q-0.8125 0.359375 -1.828125 0.359375q-1.296875 0 -2.171875 -0.375q-0.875 -0.375 -1.375 -1.125q-0.5 -0.765625 -0.53125 -1.71875z" fill-rule="nonzero"/><path fill="#6aa84f" d="m378.64697 31.272966l0 0c0 -10.184652 8.460754 -18.440945 18.897644 -18.440945l0 0c5.011963 0 9.818665 1.9428797 13.36264 5.401227c3.5440063 3.4583492 5.5350037 8.148876 5.5350037 13.039719l0 0c0 10.184652 -8.460754 18.440943 -18.897644 18.440943l0 0c-10.43689 0 -18.897644 -8.25629 -18.897644 -18.440943z" fill-rule="evenodd"/><path stroke="#595959" stroke-width="1.0" stroke-linejoin="round" stroke-linecap="butt" d="m378.64697 31.272966l0 0c0 -10.184652 8.460754 -18.440945 18.897644 -18.440945l0 0c5.011963 0 9.818665 1.9428797 13.36264 5.401227c3.5440063 3.4583492 5.5350037 8.148876 5.5350037 13.039719l0 0c0 10.184652 -8.460754 18.440943 -18.897644 18.440943l0 0c-10.43689 0 -18.897644 -8.25629 -18.897644 -18.440943z" fill-rule="evenodd"/><path fill="#000000" d="m401.27573 35.08609l0 2.046875l-7.6875 0q0.125 -1.15625 0.75 -2.1875q0.625 -1.046875 2.46875 -2.75q1.484375 -1.390625 1.8125 -1.875q0.453125 -0.6875 0.453125 -1.34375q0 -0.734375 -0.390625 -1.125q-0.390625 -0.40625 -1.09375 -0.40625q-0.6875 0 -1.09375 0.421875q-0.40625 0.40625 -0.46875 1.375l-2.1875 -0.21875q0.203125 -1.8125 1.234375 -2.59375q1.03125 -0.796875 2.578125 -0.796875q1.6875 0 2.65625 0.921875q0.96875 0.90625 0.96875 2.265625q0 0.765625 -0.28125 1.46875q-0.265625 0.703125 -0.875 1.46875q-0.390625 0.5 -1.4375 1.453125q-1.03125 0.953125 -1.3125 1.265625q-0.28125 0.3125 -0.453125 0.609375l4.359375 0z" fill-rule="nonzero"/><path fill="#a4c2f4" d="m438.37402 12.832021l37.795258 0l0 36.88189l-37.795258 0z" fill-rule="evenodd"/><path stroke="#595959" stroke-width="1.0" stroke-linejoin="round" stroke-linecap="butt" d="m438.37402 12.832021l37.795258 0l0 36.88189l-37.795258 0z" fill-rule="evenodd"/><path fill="#000000" d="m451.93573 37.132965l3.9218445 -5.984373l-3.5468445 -5.46875l2.7030945 0l2.296875 3.671875l2.25 -3.671875l2.671875 0l-3.5625 5.5625l3.921875 5.890623l-2.796875 0l-2.53125 -3.96875l-2.546875 3.96875l-2.7812195 0z" fill-rule="nonzero"/><path fill="#000000" fill-opacity="0.0" d="m416.44226 31.272966l21.921265 0" fill-rule="evenodd"/><path stroke="#595959" stroke-width="1.0" stroke-linejoin="round" stroke-linecap="butt" d="m416.44226 31.272966l15.921265 0" fill-rule="evenodd"/><path fill="#595959" stroke="#595959" stroke-width="1.0" stroke-linecap="butt" d="m432.36353 32.924698l4.538086 -1.6517315l-4.538086 -1.6517334z" fill-rule="evenodd"/><path fill="#000000" fill-opacity="0.0" d="m280.97507 75.63517l97.66928 -44.34646" fill-rule="evenodd"/><path stroke="#595959" stroke-width="1.0" stroke-linejoin="round" stroke-linecap="butt" d="m280.97507 75.63517l92.206085 -41.865894" fill-rule="evenodd"/><path fill="#595959" stroke="#595959" stroke-width="1.0" stroke-linecap="butt" d="m373.864 35.27324l3.4492188 -3.3801365l-4.814972 0.37220955z" fill-rule="evenodd"/><path fill="#000000" fill-opacity="0.0" d="m280.97507 75.63517l67.37009 -2.708664" fill-rule="evenodd"/><path stroke="#595959" stroke-width="1.0" stroke-linejoin="round" stroke-linecap="butt" d="m280.97507 75.63517l61.37491 -2.4676208" fill-rule="evenodd"/><path fill="#595959" stroke="#595959" stroke-width="1.0" stroke-linecap="butt" d="m342.41635 74.81795l4.4680786 -1.8327103l-4.6007996 -1.4680862z" fill-rule="evenodd"/><path fill="#6aa84f" d="m514.54724 72.91863l0 0c0 -10.18465 8.460754 -18.44094 18.897644 -18.44094l0 0c5.011963 0 9.818665 1.9428787 13.362671 5.401226c3.5439453 3.4583473 5.534973 8.148876 5.534973 13.039715l0 0c0 10.184654 -8.460754 18.440948 -18.897644 18.440948l0 0c-10.43689 0 -18.897644 -8.256294 -18.897644 -18.440948z" fill-rule="evenodd"/><path stroke="#595959" stroke-width="1.0" stroke-linejoin="round" stroke-linecap="butt" d="m514.54724 72.91863l0 0c0 -10.18465 8.460754 -18.44094 18.897644 -18.44094l0 0c5.011963 0 9.818665 1.9428787 13.362671 5.401226c3.5439453 3.4583473 5.534973 8.148876 5.534973 13.039715l0 0c0 10.184654 -8.460754 18.440948 -18.897644 18.440948l0 0c-10.43689 0 -18.897644 -8.256294 -18.897644 -18.440948z" fill-rule="evenodd"/><path fill="#000000" d="m529.80096 75.82551l2.1875 -0.21875q0.09375 0.734375 0.546875 1.171875q0.46875 0.4375 1.0625 0.4375q0.6875 0 1.15625 -0.5625q0.484375 -0.5625 0.484375 -1.6875q0 -1.046875 -0.46875 -1.578125q-0.46875 -0.53125 -1.234375 -0.53125q-0.9375 0 -1.6875 0.84375l-1.78125 -0.265625l1.125 -5.953125l5.796875 0l0 2.046875l-4.140625 0l-0.34375 1.953125q0.734375 -0.375 1.5 -0.375q1.46875 0 2.484375 1.0625q1.015625 1.0625 1.015625 2.765625q0 1.40625 -0.828125 2.515625q-1.109375 1.53125 -3.09375 1.53125q-1.59375 0 -2.59375 -0.859375q-1.0 -0.859375 -1.1875 -2.296875z" fill-rule="nonzero"/><path fill="#000000" fill-opacity="0.0" d="m476.16928 31.272966l43.90555 28.598425" fill-rule="evenodd"/><path stroke="#595959" stroke-width="1.0" stroke-linejoin="round" stroke-linecap="butt" d="m476.16928 31.272966l38.87802 25.323679" fill-rule="evenodd"/><path fill="#595959" stroke="#595959" stroke-width="1.0" stroke-linecap="butt" d="m514.14575 57.980667l4.7041016 1.0928307l-2.901062 -3.8608742z" fill-rule="evenodd"/><path fill="#000000" fill-opacity="0.0" d="m477.02756 73.249344l37.51181 -0.34645844" fill-rule="evenodd"/><path stroke="#595959" stroke-width="1.0" stroke-linejoin="round" stroke-linecap="butt" d="m477.02756 73.249344l31.512054 -0.2910385" fill-rule="evenodd"/><path fill="#595959" stroke="#595959" stroke-width="1.0" stroke-linecap="butt" d="m508.55487 74.60996l4.522644 -1.693573l-4.553131 -1.6097488z" fill-rule="evenodd"/><path fill="#000000" fill-opacity="0.0" d="m477.02756 118.154854l43.055145 -32.188972" fill-rule="evenodd"/><path stroke="#595959" stroke-width="1.0" stroke-linejoin="round" stroke-linecap="butt" d="m477.02756 118.154854l38.249603 -28.59629" fill-rule="evenodd"/><path fill="#595959" stroke="#595959" stroke-width="1.0" stroke-linecap="butt" d="m516.26624 90.881454l2.6455688 -4.0402145l-4.623657 1.3944321z" fill-rule="evenodd"/><path fill="#000000" fill-opacity="0.0" d="m126.17585 118.07612l0 43.622124l209.03937 0l0 -25.00795" fill-rule="evenodd"/><path stroke="#595959" stroke-width="1.0" stroke-linejoin="round" stroke-linecap="butt" d="m126.17585 118.07612l0 43.622124l209.03937 0l0 -19.00795" fill-rule="evenodd"/><path fill="#595959" stroke="#595959" stroke-width="1.0" stroke-linecap="butt" d="m336.86694 142.69029l-1.6517334 -4.538101l-1.6517334 4.538101z" fill-rule="evenodd"/><path fill="#000000" fill-opacity="0.0" d="m126.17585 118.07612l0 25.0001l241.03937 0l0 -51.708763" fill-rule="evenodd"/><path stroke="#595959" stroke-width="1.0" stroke-linejoin="round" stroke-linecap="butt" d="m126.17585 118.07612l0 25.000114l241.03937 0l0 -45.70878" fill-rule="evenodd"/><path fill="#595959" stroke="#595959" stroke-width="1.0" stroke-linecap="butt" d="m368.86694 97.367455l-1.6517334 -4.538101l-1.6517334 4.538101z" fill-rule="evenodd"/><path fill="#000000" fill-opacity="0.0" d="m126.17585 118.07612l0 24.999763l271.3701 0l0 -93.34622" fill-rule="evenodd"/><path stroke="#595959" stroke-width="1.0" stroke-linejoin="round" stroke-linecap="butt" d="m126.17585 118.07612l0 24.999763l271.3701 0l0 -87.34622" fill-rule="evenodd"/><path fill="#595959" stroke="#595959" stroke-width="1.0" stroke-linecap="butt" d="m399.19766 55.72966l-1.6517334 -4.5380974l-1.6517334 4.5380974z" fill-rule="evenodd"/><path fill="#a4c2f4" d="m581.1142 54.47769l37.795227 0l0 36.88189l-37.795227 0z" fill-rule="evenodd"/><path stroke="#595959" stroke-width="1.0" stroke-linejoin="round" stroke-linecap="butt" d="m581.1142 54.47769l37.795227 0l0 36.88189l-37.795227 0z" fill-rule="evenodd"/><path fill="#000000" d="m596.3126 78.77863l0 -11.453125l7.843689 0l0 1.9375l-5.53125 0l0 2.703125l4.78125 0l0 1.9375l-4.78125 0l0 4.875l-2.312439 0z" fill-rule="nonzero"/><path fill="#000000" fill-opacity="0.0" d="m552.3425 72.91863l28.787415 0" fill-rule="evenodd"/><path stroke="#595959" stroke-width="1.0" stroke-linejoin="round" stroke-linecap="butt" d="m552.3425 72.91863l22.787415 0" fill-rule="evenodd"/><path fill="#595959" stroke="#595959" stroke-width="1.0" stroke-linecap="butt" d="m575.12994 74.570366l4.538086 -1.6517334l-4.538086 -1.6517334z" fill-rule="evenodd"/><path fill="#000000" fill-opacity="0.0" d="m618.9094 72.91863l36.97638 0" fill-rule="evenodd"/><path stroke="#595959" stroke-width="1.0" stroke-linejoin="round" stroke-linecap="butt" d="m618.9094 72.91863l30.97638 0" fill-rule="evenodd"/><path fill="#595959" stroke="#595959" stroke-width="1.0" stroke-linecap="butt" d="m649.8858 74.570366l4.538147 -1.6517334l-4.538147 -1.6517334z" fill-rule="evenodd"/></g></svg>
